M48
; DRILL file KiCad 10.0.4 date 2026-09-05T15:26:22
; FORMAT={-:-/ absolute / metric / decimal}
; #@! TF.CreationDate,2026-09-05T15:26:22-04:00
; #@! TF.GenerationSoftware,Kicad,Pcbnew,10.0.4
; #@! TF.FileFunction,Plated,1,2,PTH
FMAT,2
METRIC
; #@! TA.AperFunction,Plated,PTH,ViaDrill
T1C0.300
; #@! TA.AperFunction,Plated,PTH,ComponentDrill
T2C0.300
; #@! TA.AperFunction,Plated,PTH,ComponentDrill
T3C0.750
; #@! TA.AperFunction,Plated,PTH,ComponentDrill
T4C0.800
; #@! TA.AperFunction,Plated,PTH,ComponentDrill
T5C0.900
; #@! TA.AperFunction,Plated,PTH,ComponentDrill
T6C1.000
%
G90
G05
T1
X9.486Y177.728
X10.5Y189.45
X11.0Y165.5
X11.0Y118.5
X11.349Y156.015
X13.037Y159.0
X13.7Y152.0
X13.927Y124.228
X14.587Y176.8
X15.0Y162.95
X15.35Y154.5
X16.6Y179.68
X16.75Y153.05
X16.927Y159.272
X17.0Y123.4
X17.01Y180.673
X17.342Y166.371
X17.45Y176.05
X18.0Y125.5
X18.05Y162.0
X18.05Y153.85
X20.0Y185.9
X20.0Y176.9
X20.05Y122.85
X20.5Y151.25
X20.761Y154.665
X21.0Y155.5
X22.115Y121.501
X24.25Y150.45
X24.3Y157.0
X25.001Y157.985
X26.037Y124.5
X27.0Y118.5
X27.8Y154.3
X29.0Y144.5
X32.35Y146.0
X33.05Y162.5
X34.15Y151.05
X34.55Y149.75
X34.9Y151.8
X35.2Y150.4
X36.2Y146.0
X37.2Y181.4
X37.3Y154.7
X38.0Y158.5
X38.073Y184.772
X38.65Y155.8
X39.175Y169.5
X39.2Y151.1
X39.2Y139.5
X39.225Y166.5
X39.237Y161.5
X40.0Y150.9
X40.0Y122.5
X40.175Y171.5
X40.175Y168.5
X40.175Y165.5
X40.2Y156.7
X41.0Y137.8
X41.0Y137.0
X42.7Y153.0
X42.775Y166.5
X42.825Y172.5
X42.825Y169.5
X43.15Y135.775
X45.0Y163.5
X45.5Y135.5
X47.0Y127.5
X47.0Y116.0
X47.7Y138.125
T2
X27.36Y180.25
X27.36Y179.15
X27.91Y180.8
X27.91Y179.7
X27.91Y178.6
X28.46Y180.25
X28.46Y179.15
X29.01Y180.8
X29.01Y179.7
X29.01Y178.6
X29.56Y180.25
X29.56Y179.15
T3
X10.0Y130.5
X12.0Y130.5
X45.45Y196.0
X45.45Y194.0
T4
X22.42Y129.0
X24.96Y129.0
X27.5Y129.0
T5
X13.6Y144.5
X25.4Y144.5
T6
X45.5Y189.5
X45.5Y186.96
X45.5Y184.42
X45.5Y181.88
M30
