%TF.GenerationSoftware,KiCad,Pcbnew,10.0.4*%
%TF.CreationDate,2026-09-05T13:36:11-04:00*%
%TF.ProjectId,SoilMoistureSensor,536f696c-4d6f-4697-9374-75726553656e,rev?*%
%TF.SameCoordinates,Original*%
%TF.FileFunction,Copper,L2,Bot*%
%TF.FilePolarity,Positive*%
%FSLAX46Y46*%
G04 Gerber Fmt 4.6, Leading zero omitted, Abs format (unit mm)*
G04 Created by KiCad (PCBNEW 10.0.4) date 2026-09-05 13:36:11*
%MOMM*%
%LPD*%
G01*
G04 APERTURE LIST*
G04 Aperture macros list*
%AMRoundRect*
0 Rectangle with rounded corners*
0 $1 Rounding radius*
0 $2 $3 $4 $5 $6 $7 $8 $9 X,Y pos of 4 corners*
0 Add a 4 corners polygon primitive as box body*
4,1,4,$2,$3,$4,$5,$6,$7,$8,$9,$2,$3,0*
0 Add four circle primitives for the rounded corners*
1,1,$1+$1,$2,$3*
1,1,$1+$1,$4,$5*
1,1,$1+$1,$6,$7*
1,1,$1+$1,$8,$9*
0 Add four rect primitives between the rounded corners*
20,1,$1+$1,$2,$3,$4,$5,0*
20,1,$1+$1,$4,$5,$6,$7,0*
20,1,$1+$1,$6,$7,$8,$9,0*
20,1,$1+$1,$8,$9,$2,$3,0*%
G04 Aperture macros list end*
%TA.AperFunction,ComponentPad*%
%ADD10R,1.700000X1.700000*%
%TD*%
%TA.AperFunction,ComponentPad*%
%ADD11C,1.700000*%
%TD*%
%TA.AperFunction,ComponentPad*%
%ADD12R,2.000000X2.000000*%
%TD*%
%TA.AperFunction,ComponentPad*%
%ADD13C,2.000000*%
%TD*%
%TA.AperFunction,HeatsinkPad*%
%ADD14C,0.600000*%
%TD*%
%TA.AperFunction,ComponentPad*%
%ADD15C,1.440000*%
%TD*%
%TA.AperFunction,ComponentPad*%
%ADD16RoundRect,0.250000X-0.350000X-0.625000X0.350000X-0.625000X0.350000X0.625000X-0.350000X0.625000X0*%
%TD*%
%TA.AperFunction,ComponentPad*%
%ADD17O,1.200000X1.750000*%
%TD*%
%TA.AperFunction,ComponentPad*%
%ADD18RoundRect,0.250000X0.625000X-0.350000X0.625000X0.350000X-0.625000X0.350000X-0.625000X-0.350000X0*%
%TD*%
%TA.AperFunction,ComponentPad*%
%ADD19O,1.750000X1.200000*%
%TD*%
%TA.AperFunction,ViaPad*%
%ADD20C,0.600000*%
%TD*%
%TA.AperFunction,Conductor*%
%ADD21C,0.400000*%
%TD*%
%TA.AperFunction,Conductor*%
%ADD22C,0.250000*%
%TD*%
%TA.AperFunction,Conductor*%
%ADD23C,0.200000*%
%TD*%
G04 APERTURE END LIST*
D10*
%TO.P,J2,1,Pin_1_1*%
%TO.N,/+3V3*%
X45500000Y189500000D03*
D11*
%TO.P,J2,2,Pin_2_2*%
%TO.N,/GND*%
X45500000Y186960000D03*
%TO.P,J2,3,Pin_3_3*%
%TO.N,/ESP_TXD*%
X45500000Y184420000D03*
%TO.P,J2,4,Pin_4_4*%
%TO.N,/ESP_RXD*%
X45500000Y181880000D03*
%TD*%
D12*
%TO.P,SC1,1*%
%TO.N,/VBAT*%
X25400000Y144500000D03*
D13*
%TO.P,SC1,2*%
%TO.N,/GND*%
X13600000Y144500000D03*
%TD*%
D14*
%TO.P,U2,19,GND_19*%
%TO.N,/GND*%
X27360000Y180250000D03*
X27360000Y179150000D03*
X27910000Y180800000D03*
X27910000Y179700000D03*
X27910000Y178600000D03*
X28460000Y180250000D03*
X28460000Y179150000D03*
X29010000Y180800000D03*
X29010000Y179700000D03*
X29010000Y178600000D03*
X29560000Y180250000D03*
X29560000Y179150000D03*
%TD*%
D15*
%TO.P,RV1,1,1_1*%
%TO.N,/RV1_WIPER_TIE*%
X27500000Y129000000D03*
%TO.P,RV1,2,2_2*%
X24960000Y129000000D03*
%TO.P,RV1,3,3_3*%
%TO.N,/OSC_RC*%
X22420000Y129000000D03*
%TD*%
D16*
%TO.P,J3,1,Pin_1_1*%
%TO.N,/OSC_RC*%
X10000000Y130500000D03*
D17*
%TO.P,J3,2,Pin_2_2*%
%TO.N,/GND*%
X12000000Y130500000D03*
%TD*%
D18*
%TO.P,J1,1,Pin_1_1*%
%TO.N,/VIN_DC*%
X45450000Y194000000D03*
D19*
%TO.P,J1,2,Pin_2_2*%
%TO.N,/GND*%
X45450000Y196000000D03*
%TD*%
D20*
%TO.N,/GND*%
X21000000Y155500000D03*
X11000000Y165500000D03*
X11000000Y118500000D03*
X18000000Y125500000D03*
X45000000Y163500000D03*
X39225000Y166500000D03*
X41000000Y137800000D03*
X36200000Y146000000D03*
X27000000Y118500000D03*
X40175000Y165500000D03*
X47000000Y116000000D03*
X40000000Y122500000D03*
X17010499Y180673303D03*
X39175000Y169500000D03*
X41000000Y137000000D03*
X45500000Y135500000D03*
X16600000Y179680001D03*
X47000000Y127500000D03*
X40175000Y168500000D03*
%TO.N,/VIN_DC*%
X33750000Y162300000D03*
X37300000Y154700000D03*
%TO.N,/VCAP_ADC*%
X42824999Y169500000D03*
X37200000Y181400001D03*
X40175000Y171500000D03*
X42775000Y166500000D03*
%TO.N,/VBAT*%
X42824999Y172500000D03*
X40199999Y156700000D03*
X40250000Y161500000D03*
X47700000Y138125000D03*
X29000000Y144500000D03*
%TO.N,/LBOOST*%
X38000000Y158500000D03*
X38800000Y155800000D03*
%TO.N,/+3V3*%
X10500000Y178000000D03*
X18700000Y185850000D03*
X32500000Y146000000D03*
X17500000Y165600000D03*
X15000000Y162950000D03*
X10500000Y188450000D03*
X39199999Y139500000D03*
X14100000Y159000000D03*
X14600000Y178000000D03*
X38650000Y184500000D03*
%TO.N,/OK_HYST_N*%
X34900000Y151800000D03*
X13700000Y152000000D03*
%TO.N,/OK_PROG_N*%
X20500000Y151250000D03*
X18050000Y153850000D03*
X34150000Y151050000D03*
X16750000Y153050000D03*
%TO.N,/OK_MID_SER1*%
X15350000Y154500000D03*
X19850000Y154500000D03*
%TO.N,/VBAT_OV_N*%
X35200000Y150400000D03*
X39199999Y151100000D03*
%TO.N,/VRDIV*%
X40000000Y150900000D03*
X11150000Y157000000D03*
X27800000Y154300000D03*
X34550000Y149750000D03*
X24300000Y157000000D03*
X25150000Y157000000D03*
%TO.N,/BAT_OK*%
X42699999Y153000000D03*
X43150000Y136350000D03*
%TO.N,/OSC_RC_DISCH*%
X27100000Y124500000D03*
X23500000Y122200000D03*
X12950000Y124450000D03*
%TO.N,/FREQ_IN*%
X17450000Y176050000D03*
X20050000Y122850000D03*
X24250000Y150450000D03*
X18050000Y162000000D03*
%TO.N,/GPIO8_BOOT*%
X18750000Y176900000D03*
X15950000Y159050000D03*
%TO.N,/OSC_RC*%
X17000000Y123400000D03*
%TD*%
%TO.N,/GND*%
D21*
X47800000Y186960000D02*
X45500000Y186960000D01*
D22*
X40175000Y169500000D02*
X40175000Y168500000D01*
D21*
X47800000Y196000000D02*
X47800000Y186960000D01*
X45450000Y196000000D02*
X47800000Y196000000D01*
D22*
X40175000Y169500000D02*
X39175000Y169500000D01*
X40225000Y166500000D02*
X39225000Y166500000D01*
X40175000Y166500000D02*
X40175000Y165500000D01*
%TO.N,/VIN_DC*%
D23*
X33800000Y161300000D02*
X33750000Y161350000D01*
X33800000Y158200000D02*
X33800000Y161300000D01*
X37300000Y154700000D02*
X33800000Y158200000D01*
X33750000Y161350000D02*
X33750000Y162300000D01*
%TO.N,/VCAP_ADC*%
D22*
X40175000Y171500000D02*
X41824999Y169850000D01*
X40175000Y172500000D02*
X40175000Y171500000D01*
X41824999Y169850000D02*
X41824999Y169500000D01*
X41824999Y169500000D02*
X41824999Y166550000D01*
X40175000Y173525000D02*
X40175000Y172500000D01*
X41775000Y166500000D02*
X42775000Y166500000D01*
X40175000Y172500000D02*
X40175000Y171500000D01*
X37200000Y176500000D02*
X40175000Y173525000D01*
X41825000Y169500000D02*
X42824999Y169500000D01*
X37200000Y181400001D02*
X37200000Y176500000D01*
X41824999Y166550000D02*
X41775000Y166500000D01*
%TO.N,/VBAT*%
X41824999Y172500000D02*
X47700000Y166625000D01*
D23*
X39400000Y155500000D02*
X39350000Y155450000D01*
X40199999Y156700000D02*
X39449999Y155950000D01*
D22*
X47700000Y166625000D02*
X47700000Y140325000D01*
D23*
X40199999Y156700000D02*
X40199999Y159850000D01*
X39350000Y155400000D02*
X29000000Y145050000D01*
X39449999Y155600000D02*
X39400000Y155550000D01*
D22*
X41825000Y172500000D02*
X42824999Y172500000D01*
X47700000Y140325000D02*
X47700000Y138125000D01*
D23*
X39350000Y155450000D02*
X39350000Y155400000D01*
X40199999Y159850000D02*
X40250000Y159900000D01*
X29000000Y145050000D02*
X29000000Y144500000D01*
X39400000Y155550000D02*
X39400000Y155500000D01*
X40250000Y159900000D02*
X40250000Y161500000D01*
X39449999Y155950000D02*
X39449999Y155600000D01*
X40199998Y156700000D02*
X40199999Y156700000D01*
%TO.N,/LBOOST*%
D22*
X38000000Y158500000D02*
X38800000Y156750000D01*
X38800000Y156750000D02*
X38800000Y155800000D01*
%TO.N,/+3V3*%
D21*
X18700000Y185850000D02*
X14650000Y181800000D01*
X14650000Y173100000D02*
X14600000Y173150000D01*
X10500000Y186350000D02*
X10500000Y188450000D01*
X14650000Y168450000D02*
X14650000Y173100000D01*
X12700000Y184150000D02*
X10500000Y186350000D01*
X32500000Y138700000D02*
X32500000Y146000000D01*
X14100000Y162050000D02*
X14100000Y159000000D01*
X39199999Y139500000D02*
X32500000Y138700000D01*
X14650000Y181800000D02*
X14650000Y178850000D01*
X14650000Y178850000D02*
X14600000Y178800000D01*
X30850000Y185900000D02*
X18700000Y185850000D01*
X30900000Y185850000D02*
X30850000Y185900000D01*
X15000000Y162950000D02*
X14100000Y162050000D01*
X17500000Y165600000D02*
X14650000Y168450000D01*
X12700000Y183750000D02*
X12700000Y184150000D01*
X38650000Y184500000D02*
X37300000Y185850000D01*
X14650000Y181800000D02*
X12700000Y183750000D01*
X14600000Y178800000D02*
X14600000Y178000000D01*
X14600000Y173150000D02*
X14600000Y178000000D01*
X37300000Y185850000D02*
X30900000Y185850000D01*
X14600000Y178000000D02*
X10500000Y178000000D01*
%TO.N,/OK_HYST_N*%
D23*
X13700000Y152000000D02*
X15150000Y152000000D01*
X21650000Y151850000D02*
X34350000Y151850000D01*
X34350000Y151850000D02*
X34400000Y151800000D01*
X21600000Y151900000D02*
X21650000Y151850000D01*
X15150000Y152000000D02*
X15250000Y151900000D01*
X15250000Y151900000D02*
X21600000Y151900000D01*
X34400000Y151800000D02*
X34900000Y151800000D01*
%TO.N,/OK_PROG_N*%
X28200000Y151100000D02*
X28250000Y151050000D01*
X28250000Y151050000D02*
X34150000Y151050000D01*
X18050000Y153850000D02*
X17250000Y153050000D01*
X20500000Y151250000D02*
X21700000Y151250000D01*
X21850000Y151100000D02*
X28200000Y151100000D01*
X21700000Y151250000D02*
X21850000Y151100000D01*
X17250000Y153050000D02*
X16750000Y153050000D01*
X28250000Y151050000D02*
X34150000Y151050000D01*
%TO.N,/OK_MID_SER1*%
X15350000Y154500000D02*
X19850000Y154500000D01*
%TO.N,/VBAT_OV_N*%
X37550000Y150450000D02*
X35250000Y150450000D01*
X35250000Y150450000D02*
X35200000Y150400000D01*
X38400000Y151300000D02*
X37550000Y150450000D01*
X39199999Y151100000D02*
X38400000Y151300000D01*
%TO.N,/VRDIV*%
X35550000Y149850000D02*
X35500000Y149800000D01*
X27800000Y154300000D02*
X25150000Y156950000D01*
X35600000Y149850000D02*
X35550000Y149850000D01*
X39400000Y150450000D02*
X39350000Y150450000D01*
X39449999Y150500000D02*
X39400000Y150450000D01*
X24300000Y157000000D02*
X11150000Y157000000D01*
X37850000Y150100000D02*
X37800000Y150050000D01*
X37800000Y150050000D02*
X37750000Y150050000D01*
X39550000Y150550000D02*
X39500000Y150500000D01*
X25150000Y156950000D02*
X25150000Y157000000D01*
X40000000Y150900000D02*
X39949999Y150900000D01*
X35500000Y149800000D02*
X35450000Y149800000D01*
X39350000Y150450000D02*
X39250000Y150350000D01*
X35450000Y149800000D02*
X35400000Y149750000D01*
X37700000Y150000000D02*
X35750000Y150000000D01*
X39500000Y150500000D02*
X39449999Y150500000D01*
X39949999Y150900000D02*
X39600000Y150550000D01*
X37900000Y150100000D02*
X37850000Y150100000D01*
X38150000Y150350000D02*
X37900000Y150100000D01*
X39250000Y150350000D02*
X38150000Y150350000D01*
X35400000Y149750000D02*
X34550000Y149750000D01*
X39600000Y150550000D02*
X39550000Y150550000D01*
X37750000Y150050000D02*
X37700000Y150000000D01*
X35750000Y150000000D02*
X35600000Y149850000D01*
%TO.N,/BAT_OK*%
X43100000Y152600000D02*
X43100000Y146300000D01*
X43100000Y146300000D02*
X43150000Y146250000D01*
X42699999Y153000000D02*
X43100000Y152600000D01*
X43150000Y146250000D02*
X43150000Y136350000D01*
%TO.N,/OSC_RC_DISCH*%
X23500000Y122200000D02*
X25800000Y124500000D01*
X25800000Y124500000D02*
X27100000Y124500000D01*
X20700000Y122200000D02*
X20750000Y122150000D01*
X12950000Y124450000D02*
X15200000Y122200000D01*
X15200000Y122200000D02*
X20700000Y122200000D01*
X20750000Y122150000D02*
X23500000Y122200000D01*
%TO.N,/FREQ_IN*%
X24250000Y150450000D02*
X18550000Y144750000D01*
X17400000Y125750000D02*
X17350000Y125700000D01*
X18550000Y127000000D02*
X17450000Y125900000D01*
X16400000Y123650000D02*
X16350000Y123600000D01*
X18300000Y166800000D02*
X18250000Y166750000D01*
X16450000Y123000000D02*
X16700000Y122750000D01*
X18300000Y175200000D02*
X18300000Y166800000D01*
X18250000Y162200000D02*
X18050000Y162000000D01*
X16400000Y123150000D02*
X16400000Y123100000D01*
X17350000Y125700000D02*
X17350000Y124700000D01*
X17450000Y125900000D02*
X17450000Y125850000D01*
X17450000Y125850000D02*
X17400000Y125800000D01*
X18550000Y144750000D02*
X18550000Y127000000D01*
X16450000Y123050000D02*
X16450000Y123000000D01*
X17450000Y176050000D02*
X18300000Y175200000D01*
X16400000Y123700000D02*
X16400000Y123650000D01*
X18250000Y166750000D02*
X18250000Y162200000D01*
X16700000Y122750000D02*
X19950000Y122750000D01*
X17350000Y124700000D02*
X16450000Y123800000D01*
X16450000Y123750000D02*
X16400000Y123700000D01*
X17400000Y125800000D02*
X17400000Y125750000D01*
X16400000Y123100000D02*
X16450000Y123050000D01*
X19950000Y122750000D02*
X20050000Y122850000D01*
X16350000Y123200000D02*
X16400000Y123150000D01*
X16350000Y123600000D02*
X16350000Y123200000D01*
%TO.N,/GPIO8_BOOT*%
X18700000Y161800000D02*
X18700000Y166600000D01*
X15950000Y159050000D02*
X18700000Y161800000D01*
X18700000Y166600000D02*
X18750000Y166650000D01*
X18750000Y166650000D02*
X18750000Y176900000D01*
%TO.N,/OSC_RC*%
X22400000Y129000000D02*
X22420000Y129000000D01*
X17000000Y123400000D02*
X22400000Y128800000D01*
X22400000Y128800000D02*
X22400000Y129000000D01*
%TD*%
%TA.AperFunction,Conductor*%
%TO.N,/GND*%
G36*
X10058691Y186781093D02*
G01*
X10094655Y186731593D01*
X10099500Y186701000D01*
X10099500Y186402727D01*
X10099500Y186297273D01*
X10112033Y186250500D01*
X10126794Y186195408D01*
X10179516Y186104092D01*
X10179518Y186104090D01*
X10179520Y186104087D01*
X12270505Y184013102D01*
X12298281Y183958587D01*
X12299500Y183943100D01*
X12299500Y183802727D01*
X12299500Y183697273D01*
X12323570Y183607441D01*
X12326794Y183595408D01*
X12379516Y183504092D01*
X12379518Y183504090D01*
X12379520Y183504087D01*
X14220505Y181663102D01*
X14248281Y181608587D01*
X14249500Y181593100D01*
X14249500Y179020445D01*
X14236238Y178970947D01*
X14226793Y178954588D01*
X14226792Y178954583D01*
X14199500Y178852727D01*
X14199500Y178499500D01*
X14180593Y178441309D01*
X14131093Y178405345D01*
X14100500Y178400500D01*
X10833840Y178400500D01*
X10784341Y178413764D01*
X10693186Y178466392D01*
X10565892Y178500500D01*
X10434108Y178500500D01*
X10356200Y178479625D01*
X10306809Y178466391D01*
X10192690Y178400504D01*
X10099496Y178307310D01*
X10033609Y178193191D01*
X10033608Y178193186D01*
X9999500Y178065892D01*
X9999500Y177934108D01*
X10029579Y177821849D01*
X10033609Y177806810D01*
X10099496Y177692691D01*
X10099498Y177692689D01*
X10099500Y177692686D01*
X10192686Y177599500D01*
X10192688Y177599499D01*
X10192690Y177599497D01*
X10306810Y177533610D01*
X10306808Y177533610D01*
X10306812Y177533609D01*
X10306814Y177533608D01*
X10434108Y177499500D01*
X10434110Y177499500D01*
X10565890Y177499500D01*
X10565892Y177499500D01*
X10693186Y177533608D01*
X10784341Y177586237D01*
X10833840Y177599500D01*
X14100500Y177599500D01*
X14158691Y177580593D01*
X14194655Y177531093D01*
X14199500Y177500500D01*
X14199500Y173202727D01*
X14199500Y173097273D01*
X14225430Y173000500D01*
X14226794Y172995409D01*
X14236235Y172979058D01*
X14249500Y172929556D01*
X14249500Y168502727D01*
X14249500Y168397273D01*
X14273570Y168307441D01*
X14276794Y168295408D01*
X14329516Y168204092D01*
X14329518Y168204090D01*
X14329520Y168204087D01*
X15667614Y166865994D01*
X16980742Y165552866D01*
X17006364Y165508486D01*
X17033607Y165406815D01*
X17033609Y165406811D01*
X17099496Y165292691D01*
X17099498Y165292689D01*
X17099500Y165292686D01*
X17192686Y165199500D01*
X17192688Y165199499D01*
X17192690Y165199497D01*
X17306810Y165133610D01*
X17306808Y165133610D01*
X17306812Y165133609D01*
X17306814Y165133608D01*
X17434108Y165099500D01*
X17434110Y165099500D01*
X17565890Y165099500D01*
X17565892Y165099500D01*
X17693186Y165133608D01*
X17693188Y165133610D01*
X17693190Y165133610D01*
X17801000Y165195854D01*
X17860848Y165208576D01*
X17916744Y165183690D01*
X17947337Y165130702D01*
X17949500Y165110118D01*
X17949500Y162567193D01*
X17930593Y162509002D01*
X17881093Y162473038D01*
X17876125Y162471567D01*
X17856813Y162466392D01*
X17856810Y162466391D01*
X17742690Y162400504D01*
X17649496Y162307310D01*
X17583609Y162193191D01*
X17583608Y162193186D01*
X17549500Y162065892D01*
X17549500Y161934108D01*
X17562898Y161884107D01*
X17583609Y161806810D01*
X17649496Y161692691D01*
X17649498Y161692689D01*
X17649500Y161692686D01*
X17742686Y161599500D01*
X17742688Y161599499D01*
X17742690Y161599497D01*
X17841330Y161542547D01*
X17882271Y161497078D01*
X17888667Y161436228D01*
X17861834Y161386807D01*
X16054524Y159579496D01*
X16000007Y159551719D01*
X15984520Y159550500D01*
X15884108Y159550500D01*
X15806200Y159529625D01*
X15756809Y159516391D01*
X15642690Y159450504D01*
X15549496Y159357310D01*
X15483609Y159243191D01*
X15483608Y159243186D01*
X15449500Y159115892D01*
X15449500Y158984108D01*
X15479579Y158871849D01*
X15483609Y158856810D01*
X15549496Y158742691D01*
X15549498Y158742689D01*
X15549500Y158742686D01*
X15642686Y158649500D01*
X15642688Y158649499D01*
X15642690Y158649497D01*
X15756810Y158583610D01*
X15756808Y158583610D01*
X15756812Y158583609D01*
X15756814Y158583608D01*
X15884108Y158549500D01*
X15884110Y158549500D01*
X16015890Y158549500D01*
X16015892Y158549500D01*
X16143186Y158583608D01*
X16143188Y158583610D01*
X16143190Y158583610D01*
X16257309Y158649497D01*
X16257309Y158649498D01*
X16257314Y158649500D01*
X16350500Y158742686D01*
X16387522Y158806810D01*
X16416390Y158856810D01*
X16416390Y158856812D01*
X16416392Y158856814D01*
X16450500Y158984108D01*
X16450500Y159084522D01*
X16469407Y159142713D01*
X16479496Y159154526D01*
X17368621Y160043651D01*
X18940460Y161615489D01*
X18960096Y161649500D01*
X18980021Y161684011D01*
X19000500Y161760438D01*
X19000500Y166456353D01*
X19013765Y166505855D01*
X19030020Y166534009D01*
X19030019Y166534009D01*
X19030022Y166534012D01*
X19050500Y166610438D01*
X19050500Y166689562D01*
X19050500Y176451679D01*
X19069407Y176509870D01*
X19079490Y176521677D01*
X19150500Y176592686D01*
X19216392Y176706814D01*
X19250500Y176834108D01*
X19250500Y176965892D01*
X19216392Y177093186D01*
X19216390Y177093189D01*
X19216390Y177093191D01*
X19150503Y177207310D01*
X19150501Y177207312D01*
X19150500Y177207314D01*
X19057314Y177300500D01*
X19057311Y177300502D01*
X19057309Y177300504D01*
X18943189Y177366391D01*
X18943191Y177366391D01*
X18893799Y177379625D01*
X18815892Y177400500D01*
X18684108Y177400500D01*
X18606200Y177379625D01*
X18556809Y177366391D01*
X18442690Y177300504D01*
X18349496Y177207310D01*
X18283609Y177093191D01*
X18283608Y177093186D01*
X18249500Y176965892D01*
X18249500Y176834108D01*
X18279579Y176721849D01*
X18283609Y176706810D01*
X18349496Y176592691D01*
X18349498Y176592689D01*
X18349500Y176592686D01*
X18420505Y176521681D01*
X18448281Y176467166D01*
X18449500Y176451679D01*
X18449500Y175714479D01*
X18430593Y175656288D01*
X18381093Y175620324D01*
X18319907Y175620324D01*
X18280496Y175644475D01*
X17979496Y175945475D01*
X17951719Y175999992D01*
X17950500Y176015479D01*
X17950500Y176115891D01*
X17950500Y176115892D01*
X17916392Y176243186D01*
X17916390Y176243189D01*
X17916390Y176243191D01*
X17850503Y176357310D01*
X17850501Y176357312D01*
X17850500Y176357314D01*
X17757314Y176450500D01*
X17757311Y176450502D01*
X17757309Y176450504D01*
X17643189Y176516391D01*
X17643191Y176516391D01*
X17593799Y176529625D01*
X17515892Y176550500D01*
X17384108Y176550500D01*
X17306200Y176529625D01*
X17256809Y176516391D01*
X17142690Y176450504D01*
X17049496Y176357310D01*
X16983609Y176243191D01*
X16983608Y176243186D01*
X16949500Y176115892D01*
X16949500Y175984108D01*
X16959852Y175945475D01*
X16983609Y175856810D01*
X17049496Y175742691D01*
X17049498Y175742689D01*
X17049500Y175742686D01*
X17142686Y175649500D01*
X17142688Y175649499D01*
X17142690Y175649497D01*
X17256810Y175583610D01*
X17256808Y175583610D01*
X17256812Y175583609D01*
X17256814Y175583608D01*
X17384108Y175549500D01*
X17384110Y175549500D01*
X17484521Y175549500D01*
X17542712Y175530593D01*
X17554525Y175520504D01*
X17970504Y175104525D01*
X17998281Y175050008D01*
X17999500Y175034521D01*
X17999500Y166943649D01*
X17986237Y166894151D01*
X17969981Y166865994D01*
X17969977Y166865986D01*
X17949500Y166789565D01*
X17949500Y166089883D01*
X17930593Y166031692D01*
X17881093Y165995728D01*
X17819907Y165995728D01*
X17801000Y166004146D01*
X17693184Y166066393D01*
X17591514Y166093636D01*
X17547134Y166119258D01*
X15079496Y168586897D01*
X15051719Y168641414D01*
X15050500Y168656901D01*
X15050500Y173039286D01*
X15050501Y173039299D01*
X15050501Y173152728D01*
X15050500Y173152730D01*
X15023208Y173254584D01*
X15023207Y173254585D01*
X15023207Y173254587D01*
X15021128Y173258188D01*
X15013762Y173270948D01*
X15000500Y173320445D01*
X15000500Y177666160D01*
X15013763Y177715659D01*
X15066392Y177806814D01*
X15100500Y177934108D01*
X15100500Y178065892D01*
X15066392Y178193186D01*
X15066390Y178193189D01*
X15066390Y178193191D01*
X15013764Y178284341D01*
X15000500Y178333841D01*
X15000500Y178629557D01*
X15006376Y178663157D01*
X15009362Y178671434D01*
X15023207Y178695413D01*
X15037103Y178747273D01*
X15050501Y178797273D01*
X15050501Y178902727D01*
X15050501Y178908789D01*
X15050500Y178908807D01*
X15050500Y181465893D01*
X36699500Y181465893D01*
X36699500Y181334109D01*
X36729579Y181221850D01*
X36733609Y181206811D01*
X36799496Y181092692D01*
X36799498Y181092690D01*
X36799500Y181092687D01*
X36845505Y181046682D01*
X36873281Y180992167D01*
X36874500Y180976680D01*
X36874500Y176542853D01*
X36874500Y176457147D01*
X36894062Y176384137D01*
X36896683Y176374357D01*
X36939531Y176300143D01*
X36939533Y176300141D01*
X36939535Y176300138D01*
X39820505Y173419168D01*
X39848281Y173364653D01*
X39849500Y173349166D01*
X39849500Y171923322D01*
X39830593Y171865131D01*
X39820504Y171853319D01*
X39774500Y171807316D01*
X39774496Y171807310D01*
X39708609Y171693191D01*
X39708608Y171693186D01*
X39674500Y171565892D01*
X39674500Y171434108D01*
X39704579Y171321849D01*
X39708609Y171306810D01*
X39774496Y171192691D01*
X39774498Y171192689D01*
X39774500Y171192686D01*
X39867686Y171099500D01*
X39867688Y171099499D01*
X39867690Y171099497D01*
X39981810Y171033610D01*
X39981808Y171033610D01*
X39981812Y171033609D01*
X39981814Y171033608D01*
X40109108Y170999500D01*
X40174165Y170999500D01*
X40232356Y170980593D01*
X40244169Y170970504D01*
X41470503Y169744170D01*
X41498280Y169689653D01*
X41499499Y169674166D01*
X41499499Y166700346D01*
X41486236Y166650847D01*
X41471682Y166625639D01*
X41471681Y166625637D01*
X41471681Y166625636D01*
X41467610Y166610440D01*
X41449499Y166542849D01*
X41449499Y166457145D01*
X41451638Y166449165D01*
X41455673Y166434108D01*
X41471682Y166374362D01*
X41471683Y166374360D01*
X41471684Y166374358D01*
X41474983Y166368643D01*
X41474984Y166368642D01*
X41480238Y166359541D01*
X41510683Y166306810D01*
X41514535Y166300138D01*
X41575138Y166239535D01*
X41575140Y166239534D01*
X41575141Y166239533D01*
X41575688Y166239139D01*
X41577683Y166238066D01*
X41649364Y166196681D01*
X41732150Y166174499D01*
X41817856Y166174500D01*
X42351678Y166174500D01*
X42409869Y166155593D01*
X42421681Y166145504D01*
X42467684Y166099501D01*
X42467690Y166099497D01*
X42581810Y166033610D01*
X42581808Y166033610D01*
X42581812Y166033609D01*
X42581814Y166033608D01*
X42709108Y165999500D01*
X42709110Y165999500D01*
X42840890Y165999500D01*
X42840892Y165999500D01*
X42968186Y166033608D01*
X42968188Y166033610D01*
X42968190Y166033610D01*
X43082309Y166099497D01*
X43082309Y166099498D01*
X43082314Y166099500D01*
X43175500Y166192686D01*
X43202548Y166239534D01*
X43241390Y166306810D01*
X43241390Y166306812D01*
X43241392Y166306814D01*
X43275500Y166434108D01*
X43275500Y166565892D01*
X43241392Y166693186D01*
X43241390Y166693189D01*
X43241390Y166693191D01*
X43175503Y166807310D01*
X43175501Y166807312D01*
X43175500Y166807314D01*
X43082314Y166900500D01*
X43082311Y166900502D01*
X43082309Y166900504D01*
X42968189Y166966391D01*
X42968191Y166966391D01*
X42918799Y166979625D01*
X42840892Y167000500D01*
X42709108Y167000500D01*
X42631200Y166979625D01*
X42581809Y166966391D01*
X42467690Y166900504D01*
X42467684Y166900500D01*
X42421681Y166854496D01*
X42414564Y166850871D01*
X42409869Y166844407D01*
X42387817Y166837243D01*
X42367164Y166826719D01*
X42351678Y166825500D01*
X42249499Y166825500D01*
X42191308Y166844407D01*
X42155344Y166893907D01*
X42150499Y166924500D01*
X42150499Y169075500D01*
X42169406Y169133691D01*
X42218906Y169169655D01*
X42249499Y169174500D01*
X42401677Y169174500D01*
X42459868Y169155593D01*
X42471680Y169145504D01*
X42517683Y169099501D01*
X42517689Y169099497D01*
X42631809Y169033610D01*
X42631807Y169033610D01*
X42631811Y169033609D01*
X42631813Y169033608D01*
X42759107Y168999500D01*
X42759109Y168999500D01*
X42890889Y168999500D01*
X42890891Y168999500D01*
X43018185Y169033608D01*
X43018187Y169033610D01*
X43018189Y169033610D01*
X43132308Y169099497D01*
X43132308Y169099498D01*
X43132313Y169099500D01*
X43225499Y169192686D01*
X43291391Y169306814D01*
X43325499Y169434108D01*
X43325499Y169565892D01*
X43291391Y169693186D01*
X43291389Y169693189D01*
X43291389Y169693191D01*
X43225502Y169807310D01*
X43225500Y169807312D01*
X43225499Y169807314D01*
X43132313Y169900500D01*
X43132310Y169900502D01*
X43132308Y169900504D01*
X43018188Y169966391D01*
X43018190Y169966391D01*
X42968798Y169979625D01*
X42890891Y170000500D01*
X42759107Y170000500D01*
X42681199Y169979625D01*
X42631808Y169966391D01*
X42517689Y169900504D01*
X42517683Y169900500D01*
X42471680Y169854496D01*
X42464563Y169850871D01*
X42459868Y169844407D01*
X42437816Y169837243D01*
X42417163Y169826719D01*
X42401677Y169825500D01*
X42244512Y169825500D01*
X42186321Y169844407D01*
X42150357Y169893907D01*
X42148893Y169898847D01*
X42128317Y169975638D01*
X42126854Y169978172D01*
X42113964Y170000500D01*
X42113964Y170000499D01*
X42101918Y170021362D01*
X42085464Y170049862D01*
X42024861Y170110465D01*
X42024858Y170110467D01*
X40704496Y171430831D01*
X40676719Y171485348D01*
X40675500Y171500835D01*
X40675500Y171565891D01*
X40675500Y171565892D01*
X40641392Y171693186D01*
X40641390Y171693189D01*
X40641390Y171693191D01*
X40575503Y171807310D01*
X40575499Y171807316D01*
X40529496Y171853319D01*
X40501719Y171907836D01*
X40500500Y171923322D01*
X40500500Y172542853D01*
X41499499Y172542853D01*
X41499499Y172457147D01*
X41519061Y172384137D01*
X41521682Y172374357D01*
X41564530Y172300143D01*
X41564532Y172300141D01*
X41564534Y172300138D01*
X44557859Y169306814D01*
X47345504Y166519169D01*
X47373281Y166464652D01*
X47374500Y166449165D01*
X47374500Y138548322D01*
X47355593Y138490131D01*
X47345504Y138478319D01*
X47299500Y138432316D01*
X47299496Y138432310D01*
X47233609Y138318191D01*
X47227683Y138296073D01*
X47199500Y138190892D01*
X47199500Y138059108D01*
X47229579Y137946849D01*
X47233609Y137931810D01*
X47299496Y137817691D01*
X47299498Y137817689D01*
X47299500Y137817686D01*
X47392686Y137724500D01*
X47392688Y137724499D01*
X47392690Y137724497D01*
X47506810Y137658610D01*
X47506808Y137658610D01*
X47506812Y137658609D01*
X47506814Y137658608D01*
X47634108Y137624500D01*
X47634110Y137624500D01*
X47765890Y137624500D01*
X47765892Y137624500D01*
X47893186Y137658608D01*
X47893188Y137658610D01*
X47893190Y137658610D01*
X48007309Y137724497D01*
X48007309Y137724498D01*
X48007314Y137724500D01*
X48100500Y137817686D01*
X48166392Y137931814D01*
X48200500Y138059108D01*
X48200500Y138190892D01*
X48166392Y138318186D01*
X48166390Y138318189D01*
X48166390Y138318191D01*
X48100503Y138432310D01*
X48100499Y138432316D01*
X48054496Y138478319D01*
X48026719Y138532836D01*
X48025500Y138548322D01*
X48025500Y166667852D01*
X48018712Y166693186D01*
X48003318Y166750638D01*
X47960465Y166824862D01*
X47930831Y166854496D01*
X47899862Y166885466D01*
X47899862Y166885465D01*
X47899861Y166885466D01*
X45478513Y169306814D01*
X42929277Y171856049D01*
X42901501Y171910565D01*
X42911072Y171970997D01*
X42954337Y172014262D01*
X42973651Y172021676D01*
X43018185Y172033608D01*
X43132313Y172099500D01*
X43225499Y172192686D01*
X43287537Y172300138D01*
X43291389Y172306810D01*
X43291389Y172306812D01*
X43291391Y172306814D01*
X43325499Y172434108D01*
X43325499Y172565892D01*
X43291391Y172693186D01*
X43291389Y172693189D01*
X43291389Y172693191D01*
X43225502Y172807310D01*
X43225500Y172807312D01*
X43225499Y172807314D01*
X43132313Y172900500D01*
X43132310Y172900502D01*
X43132308Y172900504D01*
X43018188Y172966391D01*
X43018190Y172966391D01*
X42968798Y172979625D01*
X42890891Y173000500D01*
X42759107Y173000500D01*
X42681199Y172979625D01*
X42631808Y172966391D01*
X42517689Y172900504D01*
X42517683Y172900500D01*
X42471680Y172854496D01*
X42417163Y172826719D01*
X42401677Y172825500D01*
X41867852Y172825500D01*
X41782146Y172825500D01*
X41731477Y172811924D01*
X41699355Y172803317D01*
X41625141Y172760469D01*
X41564530Y172699858D01*
X41521682Y172625644D01*
X41521681Y172625639D01*
X41499499Y172542853D01*
X40500500Y172542853D01*
X40500500Y173567852D01*
X40500500Y173567853D01*
X40478318Y173650638D01*
X40435465Y173724862D01*
X40435462Y173724865D01*
X40374862Y173785466D01*
X40374862Y173785465D01*
X37554496Y176605831D01*
X37526719Y176660348D01*
X37525500Y176675835D01*
X37525500Y180976680D01*
X37544407Y181034871D01*
X37554490Y181046678D01*
X37600500Y181092687D01*
X37666392Y181206815D01*
X37700500Y181334109D01*
X37700500Y181465893D01*
X37666392Y181593187D01*
X37666390Y181593190D01*
X37666390Y181593192D01*
X37600503Y181707311D01*
X37600501Y181707313D01*
X37600500Y181707315D01*
X37507314Y181800501D01*
X37507311Y181800503D01*
X37507309Y181800505D01*
X37393189Y181866392D01*
X37393191Y181866392D01*
X37348869Y181878268D01*
X37265892Y181900501D01*
X37134108Y181900501D01*
X37056200Y181879626D01*
X37006809Y181866392D01*
X36892690Y181800505D01*
X36799496Y181707311D01*
X36733609Y181593192D01*
X36728355Y181573582D01*
X36699500Y181465893D01*
X15050500Y181465893D01*
X15050500Y181593100D01*
X15069407Y181651291D01*
X15079490Y181663098D01*
X15399860Y181983468D01*
X44449500Y181983468D01*
X44449500Y181776533D01*
X44489869Y181573582D01*
X44569058Y181382403D01*
X44601327Y181334109D01*
X44684023Y181210345D01*
X44830345Y181064023D01*
X45002402Y180949059D01*
X45193580Y180869870D01*
X45396535Y180829500D01*
X45396536Y180829500D01*
X45603464Y180829500D01*
X45603465Y180829500D01*
X45806420Y180869870D01*
X45997598Y180949059D01*
X46169655Y181064023D01*
X46315977Y181210345D01*
X46430941Y181382402D01*
X46510130Y181573580D01*
X46550500Y181776535D01*
X46550500Y181983465D01*
X46510130Y182186420D01*
X46430941Y182377598D01*
X46315977Y182549655D01*
X46169655Y182695977D01*
X45997598Y182810941D01*
X45997599Y182810941D01*
X45997597Y182810942D01*
X45806418Y182890131D01*
X45603467Y182930500D01*
X45603465Y182930500D01*
X45396535Y182930500D01*
X45396532Y182930500D01*
X45193581Y182890131D01*
X45002402Y182810942D01*
X44830348Y182695980D01*
X44684020Y182549652D01*
X44569058Y182377598D01*
X44489869Y182186419D01*
X44449500Y181983468D01*
X15399860Y181983468D01*
X18747138Y185330747D01*
X18791514Y185356367D01*
X18893186Y185383608D01*
X18986733Y185437619D01*
X19035820Y185450880D01*
X30680362Y185498799D01*
X30730267Y185485537D01*
X30745410Y185476794D01*
X30745412Y185476794D01*
X30745413Y185476793D01*
X30847273Y185449499D01*
X30847275Y185449499D01*
X30958790Y185449499D01*
X30958806Y185449500D01*
X37093099Y185449500D01*
X37151290Y185430593D01*
X37163103Y185420504D01*
X38130743Y184452864D01*
X38156366Y184408483D01*
X38183609Y184306810D01*
X38249496Y184192691D01*
X38249498Y184192689D01*
X38249500Y184192686D01*
X38342686Y184099500D01*
X38342688Y184099499D01*
X38342690Y184099497D01*
X38456810Y184033610D01*
X38456808Y184033610D01*
X38456812Y184033609D01*
X38456814Y184033608D01*
X38584108Y183999500D01*
X38584110Y183999500D01*
X38715890Y183999500D01*
X38715892Y183999500D01*
X38843186Y184033608D01*
X38843188Y184033610D01*
X38843190Y184033610D01*
X38957309Y184099497D01*
X38957309Y184099498D01*
X38957314Y184099500D01*
X39050500Y184192686D01*
X39056297Y184202727D01*
X39116390Y184306810D01*
X39116390Y184306812D01*
X39116392Y184306814D01*
X39150500Y184434108D01*
X39150500Y184523468D01*
X44449500Y184523468D01*
X44449500Y184316533D01*
X44489869Y184113582D01*
X44569058Y183922403D01*
X44684020Y183750349D01*
X44684023Y183750345D01*
X44830345Y183604023D01*
X45002402Y183489059D01*
X45193580Y183409870D01*
X45396535Y183369500D01*
X45396536Y183369500D01*
X45603464Y183369500D01*
X45603465Y183369500D01*
X45806420Y183409870D01*
X45997598Y183489059D01*
X46169655Y183604023D01*
X46315977Y183750345D01*
X46430941Y183922402D01*
X46510130Y184113580D01*
X46550500Y184316535D01*
X46550500Y184523465D01*
X46510130Y184726420D01*
X46430941Y184917598D01*
X46315977Y185089655D01*
X46169655Y185235977D01*
X46027824Y185330745D01*
X45997597Y185350942D01*
X45806418Y185430131D01*
X45603467Y185470500D01*
X45603465Y185470500D01*
X45396535Y185470500D01*
X45396532Y185470500D01*
X45193581Y185430131D01*
X45002402Y185350942D01*
X44830348Y185235980D01*
X44684020Y185089652D01*
X44569058Y184917598D01*
X44489869Y184726419D01*
X44449500Y184523468D01*
X39150500Y184523468D01*
X39150500Y184565892D01*
X39116392Y184693186D01*
X39116390Y184693189D01*
X39116390Y184693191D01*
X39050503Y184807310D01*
X39050501Y184807312D01*
X39050500Y184807314D01*
X38957314Y184900500D01*
X38957311Y184900502D01*
X38957309Y184900504D01*
X38843189Y184966391D01*
X38843191Y184966391D01*
X38793053Y184979826D01*
X38741514Y184993635D01*
X38697137Y185019256D01*
X37545913Y186170480D01*
X37545910Y186170482D01*
X37545908Y186170484D01*
X37454591Y186223206D01*
X37454593Y186223206D01*
X37415070Y186233796D01*
X37352727Y186250500D01*
X37352725Y186250500D01*
X31070445Y186250500D01*
X31021730Y186263315D01*
X31021308Y186263554D01*
X31004588Y186273207D01*
X31003905Y186273391D01*
X31003237Y186273768D01*
X31003084Y186273832D01*
X30952934Y186287049D01*
X30952934Y186287050D01*
X30952476Y186287171D01*
X30902727Y186300500D01*
X30901899Y186300500D01*
X30901083Y186300715D01*
X30849536Y186300502D01*
X30849320Y186300501D01*
X30849319Y186300501D01*
X30849074Y186300500D01*
X30797273Y186300500D01*
X30796468Y186300286D01*
X30789335Y186300256D01*
X30789335Y186300255D01*
X19031877Y186251871D01*
X18981971Y186265133D01*
X18893187Y186316392D01*
X18850754Y186327762D01*
X18765892Y186350500D01*
X18634108Y186350500D01*
X18556200Y186329625D01*
X18506809Y186316391D01*
X18392690Y186250504D01*
X18299496Y186157310D01*
X18233609Y186043190D01*
X18233607Y186043186D01*
X18206365Y185941518D01*
X18180743Y185897138D01*
X14720003Y182436398D01*
X14665486Y182408621D01*
X14605054Y182418192D01*
X14579995Y182436398D01*
X13129496Y183886897D01*
X13101719Y183941414D01*
X13100500Y183956901D01*
X13100500Y184202726D01*
X13100500Y184202727D01*
X13073207Y184304587D01*
X13073207Y184304588D01*
X13073207Y184304589D01*
X13020483Y184395909D01*
X13020482Y184395910D01*
X13020481Y184395911D01*
X13020480Y184395913D01*
X10929496Y186486897D01*
X10925869Y186494015D01*
X10919407Y186498710D01*
X10912243Y186520759D01*
X10901719Y186541414D01*
X10900500Y186556901D01*
X10900500Y186701000D01*
X10919407Y186759191D01*
X10968907Y186795155D01*
X10999500Y186800000D01*
X44327076Y186800000D01*
X44385267Y186781093D01*
X44421231Y186731593D01*
X44424857Y186716486D01*
X44427084Y186702422D01*
X44480588Y186537752D01*
X44559195Y186383476D01*
X44559197Y186383472D01*
X44623219Y186295354D01*
X45056328Y186728463D01*
X45099901Y186652993D01*
X45192993Y186559901D01*
X45268460Y186516330D01*
X44835352Y186083222D01*
X44923477Y186019195D01*
X45077751Y185940589D01*
X45242420Y185887085D01*
X45413425Y185860000D01*
X45586575Y185860000D01*
X45757579Y185887085D01*
X45922248Y185940589D01*
X46076524Y186019196D01*
X46076530Y186019200D01*
X46164646Y186083221D01*
X46164646Y186083222D01*
X45731538Y186516330D01*
X45807007Y186559901D01*
X45900099Y186652993D01*
X45943670Y186728462D01*
X46376778Y186295354D01*
X46376779Y186295354D01*
X46440800Y186383470D01*
X46440804Y186383476D01*
X46519411Y186537752D01*
X46572915Y186702422D01*
X46575143Y186716486D01*
X46602920Y186771003D01*
X46657436Y186798781D01*
X46672924Y186800000D01*
X48301000Y186800000D01*
X48359191Y186781093D01*
X48395155Y186731593D01*
X48400000Y186701000D01*
X48400000Y114599000D01*
X48381093Y114540809D01*
X48331593Y114504845D01*
X48301000Y114500000D01*
X6699000Y114500000D01*
X6640809Y114518907D01*
X6604845Y114568407D01*
X6600000Y114599000D01*
X6600000Y124515892D01*
X12449500Y124515892D01*
X12449500Y124384108D01*
X12459852Y124345475D01*
X12483609Y124256810D01*
X12549496Y124142691D01*
X12549498Y124142689D01*
X12549500Y124142686D01*
X12642686Y124049500D01*
X12642688Y124049499D01*
X12642690Y124049497D01*
X12756810Y123983610D01*
X12756808Y123983610D01*
X12756812Y123983609D01*
X12756814Y123983608D01*
X12884108Y123949500D01*
X12884110Y123949500D01*
X12984521Y123949500D01*
X13042712Y123930593D01*
X13054525Y123920504D01*
X15015489Y121959540D01*
X15015491Y121959539D01*
X15015492Y121959538D01*
X15015493Y121959537D01*
X15084008Y121919980D01*
X15084006Y121919980D01*
X15084010Y121919979D01*
X15084012Y121919978D01*
X15160438Y121899500D01*
X20556352Y121899500D01*
X20604168Y121887187D01*
X20605012Y121886722D01*
X20634012Y121869978D01*
X20636648Y121869272D01*
X20639063Y121867940D01*
X20639119Y121867918D01*
X20639121Y121867917D01*
X20652523Y121864586D01*
X20674019Y121859242D01*
X20674888Y121859026D01*
X20710438Y121849500D01*
X20713212Y121849500D01*
X20715907Y121848830D01*
X20752757Y121849500D01*
X20789562Y121849500D01*
X20792241Y121850218D01*
X23057951Y121891414D01*
X23116474Y121873567D01*
X23129746Y121862440D01*
X23192686Y121799500D01*
X23192688Y121799499D01*
X23192690Y121799497D01*
X23306810Y121733610D01*
X23306808Y121733610D01*
X23306812Y121733609D01*
X23306814Y121733608D01*
X23434108Y121699500D01*
X23434110Y121699500D01*
X23565890Y121699500D01*
X23565892Y121699500D01*
X23693186Y121733608D01*
X23693188Y121733610D01*
X23693190Y121733610D01*
X23807309Y121799497D01*
X23807309Y121799498D01*
X23807314Y121799500D01*
X23900500Y121892686D01*
X23939097Y121959538D01*
X23966390Y122006810D01*
X23966390Y122006812D01*
X23966392Y122006814D01*
X24000500Y122134108D01*
X24000500Y122234522D01*
X24019407Y122292713D01*
X24029496Y122304526D01*
X25895475Y124170504D01*
X25949992Y124198281D01*
X25965479Y124199500D01*
X26651679Y124199500D01*
X26709870Y124180593D01*
X26721676Y124170510D01*
X26792686Y124099500D01*
X26792688Y124099499D01*
X26792690Y124099497D01*
X26906810Y124033610D01*
X26906808Y124033610D01*
X26906812Y124033609D01*
X26906814Y124033608D01*
X27034108Y123999500D01*
X27034110Y123999500D01*
X27165890Y123999500D01*
X27165892Y123999500D01*
X27293186Y124033608D01*
X27293188Y124033610D01*
X27293190Y124033610D01*
X27407309Y124099497D01*
X27407309Y124099498D01*
X27407314Y124099500D01*
X27500500Y124192686D01*
X27537522Y124256810D01*
X27566390Y124306810D01*
X27566390Y124306812D01*
X27566392Y124306814D01*
X27600500Y124434108D01*
X27600500Y124565892D01*
X27566392Y124693186D01*
X27566390Y124693189D01*
X27566390Y124693191D01*
X27500503Y124807310D01*
X27500501Y124807312D01*
X27500500Y124807314D01*
X27407314Y124900500D01*
X27407311Y124900502D01*
X27407309Y124900504D01*
X27293189Y124966391D01*
X27293191Y124966391D01*
X27243799Y124979625D01*
X27165892Y125000500D01*
X27034108Y125000500D01*
X26956200Y124979625D01*
X26906809Y124966391D01*
X26792690Y124900504D01*
X26792689Y124900503D01*
X26792686Y124900501D01*
X26792686Y124900500D01*
X26721680Y124829495D01*
X26667166Y124801719D01*
X26651679Y124800500D01*
X25760435Y124800500D01*
X25684012Y124780022D01*
X25632879Y124750500D01*
X25632878Y124750501D01*
X25615491Y124740462D01*
X23604524Y122729496D01*
X23550007Y122701719D01*
X23534520Y122700500D01*
X23434108Y122700500D01*
X23356200Y122679625D01*
X23306809Y122666391D01*
X23192690Y122600504D01*
X23192685Y122600500D01*
X23113448Y122521263D01*
X23058931Y122493486D01*
X23045245Y122492283D01*
X20890950Y122453113D01*
X20839654Y122466358D01*
X20839649Y122466361D01*
X20833382Y122469979D01*
X20815989Y122480021D01*
X20815986Y122480022D01*
X20739564Y122500500D01*
X20739562Y122500500D01*
X20597617Y122500500D01*
X20539426Y122519407D01*
X20503462Y122568907D01*
X20503462Y122630093D01*
X20511882Y122649002D01*
X20516390Y122656811D01*
X20516389Y122656811D01*
X20516392Y122656814D01*
X20550500Y122784108D01*
X20550500Y122915892D01*
X20516392Y123043186D01*
X20516390Y123043189D01*
X20516390Y123043191D01*
X20450503Y123157310D01*
X20450501Y123157312D01*
X20450500Y123157314D01*
X20357314Y123250500D01*
X20357311Y123250502D01*
X20357309Y123250504D01*
X20243189Y123316391D01*
X20243191Y123316391D01*
X20177068Y123334108D01*
X20115892Y123350500D01*
X19984108Y123350500D01*
X19922932Y123334108D01*
X19856809Y123316391D01*
X19742690Y123250504D01*
X19649499Y123157313D01*
X19616409Y123099999D01*
X19570939Y123059059D01*
X19530673Y123050500D01*
X17547617Y123050500D01*
X17489426Y123069407D01*
X17453462Y123118907D01*
X17453462Y123180093D01*
X17461882Y123199002D01*
X17466390Y123206811D01*
X17466389Y123206811D01*
X17466392Y123206814D01*
X17500500Y123334108D01*
X17500500Y123434522D01*
X17519407Y123492713D01*
X17529496Y123504526D01*
X19806480Y125781510D01*
X22104362Y128079393D01*
X22158877Y128107168D01*
X22193674Y128106486D01*
X22329339Y128079500D01*
X22329340Y128079500D01*
X22510660Y128079500D01*
X22510661Y128079500D01*
X22688500Y128114874D01*
X22856020Y128184263D01*
X22856022Y128184265D01*
X22856027Y128184267D01*
X22899558Y128213355D01*
X23006785Y128285001D01*
X23134999Y128413215D01*
X23226903Y128550759D01*
X23235733Y128563973D01*
X23235739Y128563985D01*
X23305126Y128731500D01*
X23340500Y128909339D01*
X23340500Y129090661D01*
X23340499Y129090664D01*
X24039500Y129090664D01*
X24039500Y128909337D01*
X24074874Y128731501D01*
X24074874Y128731499D01*
X24144260Y128563985D01*
X24144266Y128563973D01*
X24192445Y128491870D01*
X24245001Y128413215D01*
X24373215Y128285001D01*
X24437491Y128242053D01*
X24523972Y128184267D01*
X24523984Y128184261D01*
X24585863Y128158630D01*
X24691500Y128114874D01*
X24869339Y128079500D01*
X24869340Y128079500D01*
X25050660Y128079500D01*
X25050661Y128079500D01*
X25228500Y128114874D01*
X25396020Y128184263D01*
X25396022Y128184265D01*
X25396027Y128184267D01*
X25439558Y128213355D01*
X25546785Y128285001D01*
X25674999Y128413215D01*
X25766903Y128550759D01*
X25775733Y128563973D01*
X25775739Y128563985D01*
X25845126Y128731500D01*
X25880500Y128909339D01*
X25880500Y129090661D01*
X25880499Y129090664D01*
X26579500Y129090664D01*
X26579500Y128909337D01*
X26614874Y128731501D01*
X26614874Y128731499D01*
X26684260Y128563985D01*
X26684266Y128563973D01*
X26732445Y128491870D01*
X26785001Y128413215D01*
X26913215Y128285001D01*
X26977491Y128242053D01*
X27063972Y128184267D01*
X27063984Y128184261D01*
X27125863Y128158630D01*
X27231500Y128114874D01*
X27409339Y128079500D01*
X27409340Y128079500D01*
X27590660Y128079500D01*
X27590661Y128079500D01*
X27768500Y128114874D01*
X27936020Y128184263D01*
X27936022Y128184265D01*
X27936027Y128184267D01*
X27979558Y128213355D01*
X28086785Y128285001D01*
X28214999Y128413215D01*
X28306903Y128550759D01*
X28315733Y128563973D01*
X28315739Y128563985D01*
X28385126Y128731500D01*
X28420500Y128909339D01*
X28420500Y129090661D01*
X28385126Y129268500D01*
X28361996Y129324340D01*
X28315739Y129436016D01*
X28315733Y129436028D01*
X28237676Y129552846D01*
X28214999Y129586785D01*
X28086785Y129714999D01*
X28043835Y129743697D01*
X27936027Y129815734D01*
X27936015Y129815740D01*
X27768500Y129885126D01*
X27590663Y129920500D01*
X27590661Y129920500D01*
X27409339Y129920500D01*
X27409336Y129920500D01*
X27231500Y129885126D01*
X27231498Y129885126D01*
X27063984Y129815740D01*
X27063972Y129815734D01*
X26913215Y129714999D01*
X26913211Y129714996D01*
X26785004Y129586789D01*
X26785001Y129586785D01*
X26684266Y129436028D01*
X26684260Y129436016D01*
X26614874Y129268502D01*
X26614874Y129268500D01*
X26579500Y129090664D01*
X25880499Y129090664D01*
X25845126Y129268500D01*
X25821996Y129324340D01*
X25775739Y129436016D01*
X25775733Y129436028D01*
X25697676Y129552846D01*
X25674999Y129586785D01*
X25546785Y129714999D01*
X25503835Y129743697D01*
X25396027Y129815734D01*
X25396015Y129815740D01*
X25228500Y129885126D01*
X25050663Y129920500D01*
X25050661Y129920500D01*
X24869339Y129920500D01*
X24869336Y129920500D01*
X24691500Y129885126D01*
X24691498Y129885126D01*
X24523984Y129815740D01*
X24523972Y129815734D01*
X24373215Y129714999D01*
X24373211Y129714996D01*
X24245004Y129586789D01*
X24245001Y129586785D01*
X24144266Y129436028D01*
X24144260Y129436016D01*
X24074874Y129268502D01*
X24074874Y129268500D01*
X24039500Y129090664D01*
X23340499Y129090664D01*
X23305126Y129268500D01*
X23281996Y129324340D01*
X23235739Y129436016D01*
X23235733Y129436028D01*
X23157676Y129552846D01*
X23134999Y129586785D01*
X23006785Y129714999D01*
X22963835Y129743697D01*
X22856027Y129815734D01*
X22856015Y129815740D01*
X22688500Y129885126D01*
X22510663Y129920500D01*
X22510661Y129920500D01*
X22329339Y129920500D01*
X22329336Y129920500D01*
X22151500Y129885126D01*
X22151498Y129885126D01*
X21983984Y129815740D01*
X21983972Y129815734D01*
X21833215Y129714999D01*
X21833211Y129714996D01*
X21705004Y129586789D01*
X21705001Y129586785D01*
X21604266Y129436028D01*
X21604260Y129436016D01*
X21534874Y129268502D01*
X21534874Y129268500D01*
X21499500Y129090664D01*
X21499500Y128909337D01*
X21534874Y128731501D01*
X21534874Y128731499D01*
X21604262Y128563981D01*
X21613096Y128550759D01*
X21629703Y128491870D01*
X21608523Y128434467D01*
X21600783Y128425756D01*
X17819504Y124644476D01*
X17764987Y124616699D01*
X17704555Y124626270D01*
X17661290Y124669535D01*
X17650500Y124714480D01*
X17650500Y125556353D01*
X17659468Y125597527D01*
X17661414Y125601784D01*
X17680022Y125634012D01*
X17685493Y125654436D01*
X17688940Y125661971D01*
X17690483Y125663651D01*
X17693236Y125670297D01*
X17697222Y125677202D01*
X17730022Y125734012D01*
X17730855Y125737122D01*
X17732464Y125739910D01*
X17732506Y125740010D01*
X17732519Y125740005D01*
X17756477Y125781508D01*
X18790460Y126815489D01*
X18830021Y126884011D01*
X18850500Y126960438D01*
X18850500Y144584522D01*
X18869407Y144642713D01*
X18879490Y144654520D01*
X19744717Y145519747D01*
X24199500Y145519747D01*
X24199500Y143480254D01*
X24199501Y143480242D01*
X24209316Y143430904D01*
X24211133Y143421769D01*
X24255448Y143355448D01*
X24321769Y143311133D01*
X24366231Y143302289D01*
X24380241Y143299502D01*
X24380246Y143299502D01*
X24380252Y143299500D01*
X24380253Y143299500D01*
X26419747Y143299500D01*
X26419748Y143299500D01*
X26478231Y143311133D01*
X26544552Y143355448D01*
X26588867Y143421769D01*
X26600500Y143480252D01*
X26600500Y145519748D01*
X26588867Y145578231D01*
X26544552Y145644552D01*
X26544548Y145644555D01*
X26478233Y145688866D01*
X26478231Y145688867D01*
X26478228Y145688868D01*
X26478227Y145688868D01*
X26419758Y145700499D01*
X26419748Y145700500D01*
X24380252Y145700500D01*
X24380251Y145700500D01*
X24380241Y145700499D01*
X24321772Y145688868D01*
X24321766Y145688866D01*
X24255451Y145644555D01*
X24255445Y145644549D01*
X24211134Y145578234D01*
X24211132Y145578228D01*
X24199501Y145519759D01*
X24199500Y145519747D01*
X19744717Y145519747D01*
X24145474Y149920505D01*
X24199991Y149948281D01*
X24215478Y149949500D01*
X24315890Y149949500D01*
X24315892Y149949500D01*
X24443186Y149983608D01*
X24443188Y149983610D01*
X24443190Y149983610D01*
X24557309Y150049497D01*
X24557309Y150049498D01*
X24557314Y150049500D01*
X24650500Y150142686D01*
X24661199Y150161217D01*
X24716390Y150256810D01*
X24716390Y150256812D01*
X24716392Y150256814D01*
X24750500Y150384108D01*
X24750500Y150515892D01*
X24716392Y150643186D01*
X24712748Y150649497D01*
X24711882Y150650998D01*
X24699159Y150710846D01*
X24724044Y150766742D01*
X24777031Y150797336D01*
X24797617Y150799500D01*
X28056352Y150799500D01*
X28105852Y150786237D01*
X28134012Y150769978D01*
X28210438Y150749500D01*
X33701679Y150749500D01*
X33759870Y150730593D01*
X33771676Y150720510D01*
X33842686Y150649500D01*
X33842688Y150649499D01*
X33842690Y150649497D01*
X33941330Y150592547D01*
X33982271Y150547078D01*
X33988667Y150486228D01*
X33961834Y150436807D01*
X28815489Y145290460D01*
X28815488Y145290461D01*
X28759539Y145234511D01*
X28719980Y145165993D01*
X28719978Y145165989D01*
X28699500Y145089565D01*
X28699500Y144948321D01*
X28680593Y144890130D01*
X28670509Y144878324D01*
X28599500Y144807314D01*
X28599497Y144807311D01*
X28599496Y144807310D01*
X28533609Y144693191D01*
X28533608Y144693186D01*
X28499500Y144565892D01*
X28499500Y144434108D01*
X28508205Y144401620D01*
X28533609Y144306810D01*
X28599496Y144192691D01*
X28599498Y144192689D01*
X28599500Y144192686D01*
X28692686Y144099500D01*
X28692688Y144099499D01*
X28692690Y144099497D01*
X28806810Y144033610D01*
X28806808Y144033610D01*
X28806812Y144033609D01*
X28806814Y144033608D01*
X28934108Y143999500D01*
X28934110Y143999500D01*
X29065890Y143999500D01*
X29065892Y143999500D01*
X29193186Y144033608D01*
X29193188Y144033610D01*
X29193190Y144033610D01*
X29307309Y144099497D01*
X29307309Y144099498D01*
X29307314Y144099500D01*
X29400500Y144192686D01*
X29418403Y144223694D01*
X29466390Y144306810D01*
X29466390Y144306812D01*
X29466392Y144306814D01*
X29500500Y144434108D01*
X29500500Y144565892D01*
X29466392Y144693186D01*
X29466390Y144693189D01*
X29466390Y144693191D01*
X29400503Y144807310D01*
X29400501Y144807312D01*
X29400500Y144807314D01*
X29361393Y144846421D01*
X29333618Y144900935D01*
X29343189Y144961367D01*
X29361389Y144986419D01*
X30440862Y146065892D01*
X31999500Y146065892D01*
X31999500Y145934108D01*
X32033608Y145806814D01*
X32086236Y145715659D01*
X32099500Y145666160D01*
X32099500Y138728680D01*
X32096073Y138704871D01*
X32099500Y138676171D01*
X32099500Y138647271D01*
X32103889Y138630891D01*
X32106563Y138617012D01*
X32108575Y138600167D01*
X32108576Y138600161D01*
X32119313Y138573329D01*
X32126793Y138545413D01*
X32138814Y138524590D01*
X32141446Y138518014D01*
X32141447Y138518013D01*
X32147752Y138502257D01*
X32147753Y138502256D01*
X32161539Y138483833D01*
X32168010Y138474022D01*
X32179521Y138454086D01*
X32191513Y138442093D01*
X32196527Y138437079D01*
X32210936Y138417825D01*
X32233650Y138399957D01*
X32254087Y138379520D01*
X32258397Y138377032D01*
X32268776Y138371039D01*
X32268777Y138371039D01*
X32274917Y138367494D01*
X32293818Y138352625D01*
X32320383Y138341244D01*
X32345413Y138326793D01*
X32361799Y138322403D01*
X32375150Y138317781D01*
X32388589Y138312024D01*
X32390753Y138311096D01*
X32413529Y138307818D01*
X32413530Y138307818D01*
X32419360Y138306979D01*
X32447273Y138299500D01*
X32471320Y138299500D01*
X32484115Y138297659D01*
X32495127Y138296073D01*
X32495128Y138296074D01*
X32495129Y138296073D01*
X32523830Y138299500D01*
X32552727Y138299500D01*
X32575955Y138305724D01*
X38916724Y139062832D01*
X38976744Y139050957D01*
X38977934Y139050282D01*
X39006813Y139033608D01*
X39134107Y138999500D01*
X39134109Y138999500D01*
X39265889Y138999500D01*
X39265891Y138999500D01*
X39393185Y139033608D01*
X39393187Y139033610D01*
X39393189Y139033610D01*
X39507308Y139099497D01*
X39507308Y139099498D01*
X39507313Y139099500D01*
X39600499Y139192686D01*
X39666391Y139306814D01*
X39700499Y139434108D01*
X39700499Y139565892D01*
X39666391Y139693186D01*
X39666389Y139693189D01*
X39666389Y139693191D01*
X39600502Y139807310D01*
X39600500Y139807312D01*
X39600499Y139807314D01*
X39507313Y139900500D01*
X39507310Y139900502D01*
X39507308Y139900504D01*
X39393188Y139966391D01*
X39393190Y139966391D01*
X39343798Y139979625D01*
X39265891Y140000500D01*
X39134107Y140000500D01*
X39056199Y139979625D01*
X39006808Y139966391D01*
X38892684Y139900501D01*
X38878480Y139886296D01*
X38823962Y139858519D01*
X38820216Y139857999D01*
X33011238Y139164390D01*
X32951216Y139176265D01*
X32909637Y139221152D01*
X32900500Y139262692D01*
X32900500Y145666160D01*
X32913763Y145715659D01*
X32966392Y145806814D01*
X33000500Y145934108D01*
X33000500Y146065892D01*
X32966392Y146193186D01*
X32966390Y146193189D01*
X32966390Y146193191D01*
X32900503Y146307310D01*
X32900501Y146307312D01*
X32900500Y146307314D01*
X32807314Y146400500D01*
X32807311Y146400502D01*
X32807309Y146400504D01*
X32693189Y146466391D01*
X32693191Y146466391D01*
X32643799Y146479625D01*
X32565892Y146500500D01*
X32434108Y146500500D01*
X32356200Y146479625D01*
X32306809Y146466391D01*
X32192690Y146400504D01*
X32099496Y146307310D01*
X32033609Y146193191D01*
X32017449Y146132880D01*
X31999500Y146065892D01*
X30440862Y146065892D01*
X33936807Y149561838D01*
X33991322Y149589613D01*
X34051754Y149580042D01*
X34092545Y149541333D01*
X34149498Y149442689D01*
X34149500Y149442686D01*
X34242686Y149349500D01*
X34242688Y149349499D01*
X34242690Y149349497D01*
X34356810Y149283610D01*
X34356808Y149283610D01*
X34356812Y149283609D01*
X34356814Y149283608D01*
X34484108Y149249500D01*
X34484110Y149249500D01*
X34615890Y149249500D01*
X34615892Y149249500D01*
X34743186Y149283608D01*
X34743188Y149283610D01*
X34743190Y149283610D01*
X34857309Y149349497D01*
X34857309Y149349498D01*
X34857314Y149349500D01*
X34928319Y149420506D01*
X34982834Y149448281D01*
X34998321Y149449500D01*
X35439563Y149449500D01*
X35439563Y149449501D01*
X35515989Y149469979D01*
X35579727Y149506779D01*
X35584928Y149509576D01*
X35593892Y149514059D01*
X35615989Y149519979D01*
X35682280Y149558253D01*
X35684928Y149559576D01*
X35687382Y149559946D01*
X35703576Y149566654D01*
X35715989Y149569979D01*
X35784511Y149609540D01*
X35840460Y149665489D01*
X35845475Y149670504D01*
X35899992Y149698281D01*
X35915479Y149699500D01*
X37739563Y149699500D01*
X37739563Y149699501D01*
X37815989Y149719979D01*
X37879727Y149756779D01*
X37884928Y149759576D01*
X37893892Y149764059D01*
X37915989Y149769979D01*
X37982280Y149808253D01*
X37984928Y149809576D01*
X37987382Y149809946D01*
X38003576Y149816654D01*
X38015989Y149819979D01*
X38084511Y149859540D01*
X38140460Y149915489D01*
X38245475Y150020504D01*
X38299992Y150048281D01*
X38315479Y150049500D01*
X39289563Y150049500D01*
X39289563Y150049501D01*
X39365989Y150069979D01*
X39434511Y150109540D01*
X39468494Y150143524D01*
X39492560Y150161217D01*
X39502271Y150166304D01*
X39515989Y150169979D01*
X39581488Y150207795D01*
X39583268Y150208727D01*
X39585255Y150209065D01*
X39603576Y150216654D01*
X39615989Y150219979D01*
X39679707Y150256767D01*
X39703576Y150266654D01*
X39715989Y150269979D01*
X39784511Y150309540D01*
X39846887Y150371918D01*
X39901402Y150399694D01*
X39929817Y150400065D01*
X39934107Y150399500D01*
X39934108Y150399500D01*
X40065890Y150399500D01*
X40065892Y150399500D01*
X40193186Y150433608D01*
X40193188Y150433610D01*
X40193190Y150433610D01*
X40307309Y150499497D01*
X40307309Y150499498D01*
X40307314Y150499500D01*
X40400500Y150592686D01*
X40434167Y150650998D01*
X40466390Y150706810D01*
X40466390Y150706812D01*
X40466392Y150706814D01*
X40500500Y150834108D01*
X40500500Y150965892D01*
X40466392Y151093186D01*
X40466390Y151093189D01*
X40466390Y151093191D01*
X40400503Y151207310D01*
X40400501Y151207312D01*
X40400500Y151207314D01*
X40307314Y151300500D01*
X40307311Y151300502D01*
X40307309Y151300504D01*
X40193189Y151366391D01*
X40193191Y151366391D01*
X40140549Y151380496D01*
X40065892Y151400500D01*
X39934108Y151400500D01*
X39831558Y151373022D01*
X39806810Y151366391D01*
X39755533Y151336786D01*
X39695685Y151324065D01*
X39639789Y151348952D01*
X39620298Y151373022D01*
X39600500Y151407312D01*
X39600499Y151407314D01*
X39507313Y151500500D01*
X39507310Y151500502D01*
X39507308Y151500504D01*
X39393188Y151566391D01*
X39393190Y151566391D01*
X39340186Y151580593D01*
X39265891Y151600500D01*
X39134107Y151600500D01*
X39021847Y151570421D01*
X39006809Y151566391D01*
X38910526Y151510802D01*
X38850678Y151498081D01*
X38837016Y151500495D01*
X38476166Y151590707D01*
X38475350Y151590911D01*
X38439562Y151600500D01*
X38436995Y151600500D01*
X38434503Y151601123D01*
X38434501Y151601123D01*
X38400589Y151600553D01*
X38398303Y151600514D01*
X38396638Y151600500D01*
X38360438Y151600500D01*
X38360436Y151600500D01*
X38357066Y151600057D01*
X38357064Y151600058D01*
X38355875Y151599901D01*
X38355482Y151599820D01*
X38320559Y151589832D01*
X38320560Y151589831D01*
X38319708Y151589588D01*
X38284012Y151580022D01*
X38281786Y151578738D01*
X38279318Y151578031D01*
X38248265Y151559400D01*
X38248264Y151559401D01*
X38247507Y151558948D01*
X38215489Y151540460D01*
X38213672Y151538645D01*
X38211467Y151537321D01*
X38186305Y151511299D01*
X38185142Y151510116D01*
X37454525Y150779497D01*
X37400008Y150751719D01*
X37384521Y150750500D01*
X35598321Y150750500D01*
X35543302Y150767196D01*
X35535205Y150772609D01*
X35507314Y150800500D01*
X35405860Y150859075D01*
X35403149Y150860887D01*
X35386126Y150882490D01*
X35367727Y150902925D01*
X35367373Y150906289D01*
X35365280Y150908945D01*
X35364206Y150936427D01*
X35361332Y150963775D01*
X35363016Y150966878D01*
X35362891Y150970084D01*
X35372829Y150984953D01*
X35388162Y151013193D01*
X37440862Y153065892D01*
X42199499Y153065892D01*
X42199499Y152934108D01*
X42217885Y152865489D01*
X42233608Y152806810D01*
X42299495Y152692691D01*
X42299497Y152692689D01*
X42299499Y152692686D01*
X42392685Y152599500D01*
X42392687Y152599499D01*
X42392689Y152599497D01*
X42506809Y152533610D01*
X42506807Y152533610D01*
X42506811Y152533609D01*
X42506813Y152533608D01*
X42634107Y152499500D01*
X42634109Y152499500D01*
X42700500Y152499500D01*
X42758691Y152480593D01*
X42794655Y152431093D01*
X42799500Y152400500D01*
X42799500Y146260436D01*
X42819978Y146184014D01*
X42819979Y146184011D01*
X42836236Y146155852D01*
X42849500Y146106353D01*
X42849500Y136798321D01*
X42830593Y136740130D01*
X42820509Y136728324D01*
X42749500Y136657314D01*
X42749497Y136657311D01*
X42749496Y136657310D01*
X42683609Y136543191D01*
X42683608Y136543186D01*
X42649500Y136415892D01*
X42649500Y136284108D01*
X42679579Y136171849D01*
X42683609Y136156810D01*
X42749496Y136042691D01*
X42749498Y136042689D01*
X42749500Y136042686D01*
X42842686Y135949500D01*
X42842688Y135949499D01*
X42842690Y135949497D01*
X42956810Y135883610D01*
X42956808Y135883610D01*
X42956812Y135883609D01*
X42956814Y135883608D01*
X43084108Y135849500D01*
X43084110Y135849500D01*
X43215890Y135849500D01*
X43215892Y135849500D01*
X43343186Y135883608D01*
X43343188Y135883610D01*
X43343190Y135883610D01*
X43457309Y135949497D01*
X43457309Y135949498D01*
X43457314Y135949500D01*
X43550500Y136042686D01*
X43616392Y136156814D01*
X43650500Y136284108D01*
X43650500Y136415892D01*
X43616392Y136543186D01*
X43616390Y136543189D01*
X43616390Y136543191D01*
X43550503Y136657310D01*
X43550501Y136657312D01*
X43550500Y136657314D01*
X43479494Y136728320D01*
X43451719Y136782834D01*
X43450500Y136798321D01*
X43450500Y146289563D01*
X43447020Y146302547D01*
X43445743Y146307314D01*
X43430022Y146365988D01*
X43409746Y146401106D01*
X43406901Y146408631D01*
X43406259Y146422154D01*
X43400500Y146443650D01*
X43400500Y152639563D01*
X43400499Y152639565D01*
X43397837Y152649498D01*
X43380021Y152715989D01*
X43377414Y152720504D01*
X43340460Y152784511D01*
X43284511Y152840461D01*
X43284511Y152840460D01*
X43229495Y152895476D01*
X43201718Y152949993D01*
X43200499Y152965480D01*
X43200499Y153065891D01*
X43187102Y153115891D01*
X43166391Y153193186D01*
X43166389Y153193189D01*
X43166389Y153193191D01*
X43100502Y153307310D01*
X43100500Y153307312D01*
X43100499Y153307314D01*
X43007313Y153400500D01*
X43007310Y153400502D01*
X43007308Y153400504D01*
X42893188Y153466391D01*
X42893190Y153466391D01*
X42843798Y153479625D01*
X42765891Y153500500D01*
X42634107Y153500500D01*
X42556199Y153479625D01*
X42506808Y153466391D01*
X42392689Y153400504D01*
X42299495Y153307310D01*
X42233608Y153193191D01*
X42233607Y153193186D01*
X42199499Y153065892D01*
X37440862Y153065892D01*
X39590460Y155215489D01*
X39610096Y155249500D01*
X39630021Y155284011D01*
X39635608Y155304864D01*
X39639309Y155312769D01*
X39640760Y155314321D01*
X39643236Y155320298D01*
X39650922Y155333610D01*
X39680022Y155384012D01*
X39683348Y155396427D01*
X39693237Y155420299D01*
X39730022Y155484015D01*
X39730022Y155484016D01*
X39732347Y155492691D01*
X39748797Y155554087D01*
X39750499Y155560438D01*
X39750499Y155784523D01*
X39769406Y155842714D01*
X39779483Y155854514D01*
X40095474Y156170506D01*
X40149989Y156198281D01*
X40165476Y156199500D01*
X40265889Y156199500D01*
X40265891Y156199500D01*
X40393185Y156233608D01*
X40393187Y156233610D01*
X40393189Y156233610D01*
X40507308Y156299497D01*
X40507308Y156299498D01*
X40507313Y156299500D01*
X40600499Y156392686D01*
X40600502Y156392691D01*
X40666389Y156506810D01*
X40666389Y156506812D01*
X40666391Y156506814D01*
X40700499Y156634108D01*
X40700499Y156765892D01*
X40666391Y156893186D01*
X40666389Y156893189D01*
X40666389Y156893191D01*
X40600502Y157007310D01*
X40600500Y157007312D01*
X40600499Y157007314D01*
X40529493Y157078320D01*
X40501718Y157132834D01*
X40500499Y157148321D01*
X40500499Y159706351D01*
X40506474Y159740222D01*
X40509435Y159748358D01*
X40530020Y159784009D01*
X40550499Y159860435D01*
X40550498Y159860435D01*
X40550500Y159860438D01*
X40550500Y159861140D01*
X40551751Y159864575D01*
X40553537Y159870471D01*
X40553874Y159873028D01*
X40555245Y159878146D01*
X40550534Y159891451D01*
X40550500Y159894040D01*
X40550500Y161051679D01*
X40569407Y161109870D01*
X40579490Y161121677D01*
X40650500Y161192686D01*
X40650503Y161192691D01*
X40716390Y161306810D01*
X40716390Y161306812D01*
X40716392Y161306814D01*
X40750500Y161434108D01*
X40750500Y161565892D01*
X40716392Y161693186D01*
X40716390Y161693189D01*
X40716390Y161693191D01*
X40650503Y161807310D01*
X40650501Y161807312D01*
X40650500Y161807314D01*
X40557314Y161900500D01*
X40557311Y161900502D01*
X40557309Y161900504D01*
X40443189Y161966391D01*
X40443191Y161966391D01*
X40393799Y161979625D01*
X40315892Y162000500D01*
X40184108Y162000500D01*
X40106200Y161979625D01*
X40056809Y161966391D01*
X39942690Y161900504D01*
X39849496Y161807310D01*
X39783609Y161693191D01*
X39781149Y161684010D01*
X39749500Y161565892D01*
X39749500Y161434108D01*
X39762174Y161386807D01*
X39783609Y161306810D01*
X39849496Y161192691D01*
X39849498Y161192689D01*
X39849500Y161192686D01*
X39920505Y161121681D01*
X39948281Y161067166D01*
X39949500Y161051679D01*
X39949500Y160043651D01*
X39936238Y159994153D01*
X39919977Y159965988D01*
X39919976Y159965986D01*
X39899499Y159889565D01*
X39899499Y157148321D01*
X39880592Y157090130D01*
X39870508Y157078324D01*
X39799499Y157007314D01*
X39799496Y157007311D01*
X39799495Y157007310D01*
X39733608Y156893191D01*
X39721059Y156846356D01*
X39702540Y156777239D01*
X39699499Y156765891D01*
X39699499Y156665479D01*
X39680592Y156607288D01*
X39670508Y156595482D01*
X39467719Y156392691D01*
X39294504Y156219476D01*
X39239987Y156191699D01*
X39179555Y156201270D01*
X39136290Y156244535D01*
X39125500Y156289480D01*
X39125500Y156734556D01*
X39128095Y156761843D01*
X39125500Y156777239D01*
X39125500Y156792853D01*
X39125500Y156792855D01*
X39119620Y156814794D01*
X39118404Y156819333D01*
X39113850Y156846356D01*
X39107360Y156860553D01*
X39103318Y156875638D01*
X39103316Y156875642D01*
X39091957Y156895317D01*
X39087655Y156903657D01*
X38830405Y157466391D01*
X38473738Y158246600D01*
X38466741Y158307381D01*
X38468140Y158313340D01*
X38500500Y158434108D01*
X38500500Y158565892D01*
X38466392Y158693186D01*
X38466390Y158693189D01*
X38466390Y158693191D01*
X38400503Y158807310D01*
X38400501Y158807312D01*
X38400500Y158807314D01*
X38307314Y158900500D01*
X38307311Y158900502D01*
X38307309Y158900504D01*
X38193189Y158966391D01*
X38193191Y158966391D01*
X38127068Y158984108D01*
X38065892Y159000500D01*
X37934108Y159000500D01*
X37872932Y158984108D01*
X37806809Y158966391D01*
X37692690Y158900504D01*
X37599496Y158807310D01*
X37533609Y158693191D01*
X37533608Y158693186D01*
X37499500Y158565892D01*
X37499500Y158434108D01*
X37517889Y158365479D01*
X37533609Y158306810D01*
X37599496Y158192691D01*
X37599498Y158192689D01*
X37599500Y158192686D01*
X37692686Y158099500D01*
X37806814Y158033608D01*
X37806816Y158033608D01*
X37806817Y158033607D01*
X37812754Y158032017D01*
X37817041Y158030868D01*
X37868357Y157997547D01*
X37881461Y157976400D01*
X38434837Y156765891D01*
X38465538Y156698734D01*
X38474500Y156657574D01*
X38474500Y156223322D01*
X38455593Y156165131D01*
X38445504Y156153319D01*
X38399500Y156107316D01*
X38399496Y156107310D01*
X38333609Y155993191D01*
X38333608Y155993186D01*
X38299500Y155865892D01*
X38299500Y155734108D01*
X38329579Y155621849D01*
X38333609Y155606810D01*
X38399496Y155492691D01*
X38399498Y155492689D01*
X38399500Y155492686D01*
X38492686Y155399500D01*
X38492688Y155399499D01*
X38492690Y155399497D01*
X38606810Y155333610D01*
X38606808Y155333610D01*
X38606812Y155333609D01*
X38606814Y155333608D01*
X38639790Y155324773D01*
X38691103Y155291449D01*
X38713030Y155234328D01*
X38697195Y155175227D01*
X38684170Y155159142D01*
X37930487Y154405459D01*
X37875970Y154377682D01*
X37815538Y154387253D01*
X37772273Y154430518D01*
X37762702Y154490950D01*
X37764856Y154501086D01*
X37766389Y154506811D01*
X37766392Y154506814D01*
X37800500Y154634108D01*
X37800500Y154765892D01*
X37766392Y154893186D01*
X37766390Y154893189D01*
X37766390Y154893191D01*
X37700503Y155007310D01*
X37700501Y155007312D01*
X37700500Y155007314D01*
X37607314Y155100500D01*
X37607311Y155100502D01*
X37607309Y155100504D01*
X37493189Y155166391D01*
X37493191Y155166391D01*
X37443799Y155179625D01*
X37365892Y155200500D01*
X37265479Y155200500D01*
X37207288Y155219407D01*
X37195475Y155229496D01*
X34129496Y158295475D01*
X34101719Y158349992D01*
X34100500Y158365479D01*
X34100500Y161339563D01*
X34100090Y161341092D01*
X34100089Y161341093D01*
X34098932Y161345413D01*
X34080022Y161415988D01*
X34059510Y161451515D01*
X34056576Y161459501D01*
X34056067Y161472870D01*
X34050500Y161493650D01*
X34050500Y161851679D01*
X34069407Y161909870D01*
X34079490Y161921677D01*
X34150500Y161992686D01*
X34150503Y161992691D01*
X34216390Y162106810D01*
X34216390Y162106812D01*
X34216392Y162106814D01*
X34250500Y162234108D01*
X34250500Y162365892D01*
X34216392Y162493186D01*
X34216390Y162493189D01*
X34216390Y162493191D01*
X34150503Y162607310D01*
X34150501Y162607312D01*
X34150500Y162607314D01*
X34057314Y162700500D01*
X34057311Y162700502D01*
X34057309Y162700504D01*
X33943189Y162766391D01*
X33943191Y162766391D01*
X33893799Y162779625D01*
X33815892Y162800500D01*
X33684108Y162800500D01*
X33606200Y162779625D01*
X33556809Y162766391D01*
X33442690Y162700504D01*
X33349496Y162607310D01*
X33283609Y162493191D01*
X33276428Y162466391D01*
X33249500Y162365892D01*
X33249500Y162234108D01*
X33257410Y162204588D01*
X33283609Y162106810D01*
X33349496Y161992691D01*
X33349498Y161992689D01*
X33349500Y161992686D01*
X33420505Y161921681D01*
X33448281Y161867166D01*
X33449500Y161851679D01*
X33449500Y161310436D01*
X33469978Y161234012D01*
X33469980Y161234008D01*
X33486236Y161205852D01*
X33499500Y161156352D01*
X33499500Y158160436D01*
X33519977Y158084015D01*
X33519979Y158084010D01*
X33549077Y158033610D01*
X33559538Y158015492D01*
X33559540Y158015489D01*
X36770505Y154804524D01*
X36798281Y154750009D01*
X36799500Y154734522D01*
X36799500Y154634108D01*
X36817778Y154565892D01*
X36833609Y154506810D01*
X36899496Y154392691D01*
X36899498Y154392689D01*
X36899500Y154392686D01*
X36992686Y154299500D01*
X36992688Y154299499D01*
X36992690Y154299497D01*
X37106810Y154233610D01*
X37106808Y154233610D01*
X37106812Y154233609D01*
X37106814Y154233608D01*
X37234108Y154199500D01*
X37234110Y154199500D01*
X37365890Y154199500D01*
X37365892Y154199500D01*
X37493186Y154233608D01*
X37493190Y154233611D01*
X37498913Y154235144D01*
X37560014Y154231942D01*
X37607564Y154193437D01*
X37623400Y154134336D01*
X37601474Y154077215D01*
X37594540Y154069513D01*
X35513193Y151988166D01*
X35458676Y151960389D01*
X35398244Y151969960D01*
X35357453Y152008670D01*
X35300503Y152107310D01*
X35300501Y152107312D01*
X35300500Y152107314D01*
X35207314Y152200500D01*
X35207311Y152200502D01*
X35207309Y152200504D01*
X35093189Y152266391D01*
X35093191Y152266391D01*
X35042318Y152280022D01*
X34965892Y152300500D01*
X34834108Y152300500D01*
X34757682Y152280022D01*
X34706809Y152266391D01*
X34592686Y152200501D01*
X34550742Y152158557D01*
X34496225Y152130780D01*
X34455115Y152132935D01*
X34389564Y152150500D01*
X34389562Y152150500D01*
X21793649Y152150500D01*
X21744150Y152163763D01*
X21715990Y152180021D01*
X21715988Y152180022D01*
X21639564Y152200500D01*
X21639562Y152200500D01*
X15415478Y152200500D01*
X15359308Y152217977D01*
X15351867Y152223104D01*
X15334511Y152240460D01*
X15289595Y152266392D01*
X15286171Y152268369D01*
X15265988Y152280022D01*
X15189564Y152300500D01*
X15189562Y152300500D01*
X14148321Y152300500D01*
X14090130Y152319407D01*
X14078323Y152329491D01*
X14007314Y152400500D01*
X14007311Y152400502D01*
X14007309Y152400504D01*
X13893189Y152466391D01*
X13893191Y152466391D01*
X13840187Y152480593D01*
X13765892Y152500500D01*
X13634108Y152500500D01*
X13559813Y152480593D01*
X13506809Y152466391D01*
X13392690Y152400504D01*
X13299496Y152307310D01*
X13233609Y152193191D01*
X13216683Y152130021D01*
X13199500Y152065892D01*
X13199500Y151934108D01*
X13215754Y151873447D01*
X13233609Y151806810D01*
X13299496Y151692691D01*
X13299498Y151692689D01*
X13299500Y151692686D01*
X13392686Y151599500D01*
X13392688Y151599499D01*
X13392690Y151599497D01*
X13506810Y151533610D01*
X13506808Y151533610D01*
X13506812Y151533609D01*
X13506814Y151533608D01*
X13634108Y151499500D01*
X13634110Y151499500D01*
X13765890Y151499500D01*
X13765892Y151499500D01*
X13893186Y151533608D01*
X13893188Y151533610D01*
X13893190Y151533610D01*
X14007309Y151599497D01*
X14007309Y151599498D01*
X14007314Y151599500D01*
X14078319Y151670506D01*
X14132834Y151698281D01*
X14148321Y151699500D01*
X14984522Y151699500D01*
X15042713Y151680593D01*
X15054519Y151670510D01*
X15065489Y151659540D01*
X15065491Y151659539D01*
X15134007Y151619981D01*
X15134011Y151619979D01*
X15210435Y151599501D01*
X15210437Y151599500D01*
X15210438Y151599500D01*
X19952383Y151599500D01*
X20010574Y151580593D01*
X20046538Y151531093D01*
X20046538Y151469907D01*
X20038118Y151450998D01*
X20033609Y151443190D01*
X20033608Y151443186D01*
X19999500Y151315892D01*
X19999500Y151184108D01*
X20015754Y151123447D01*
X20033609Y151056810D01*
X20099496Y150942691D01*
X20099498Y150942689D01*
X20099500Y150942686D01*
X20192686Y150849500D01*
X20192688Y150849499D01*
X20192690Y150849497D01*
X20306810Y150783610D01*
X20306808Y150783610D01*
X20306812Y150783609D01*
X20306814Y150783608D01*
X20434108Y150749500D01*
X20434110Y150749500D01*
X20565890Y150749500D01*
X20565892Y150749500D01*
X20693186Y150783608D01*
X20693188Y150783610D01*
X20693190Y150783610D01*
X20807309Y150849497D01*
X20807309Y150849498D01*
X20807314Y150849500D01*
X20878319Y150920506D01*
X20932834Y150948281D01*
X20948321Y150949500D01*
X21534521Y150949500D01*
X21592712Y150930593D01*
X21604525Y150920504D01*
X21609540Y150915489D01*
X21609539Y150915489D01*
X21665489Y150859540D01*
X21734007Y150819981D01*
X21734011Y150819979D01*
X21810435Y150799501D01*
X21810437Y150799500D01*
X21810438Y150799500D01*
X21889562Y150799500D01*
X23702383Y150799500D01*
X23760574Y150780593D01*
X23796538Y150731093D01*
X23796538Y150669907D01*
X23788118Y150650998D01*
X23783609Y150643190D01*
X23783608Y150643186D01*
X23770040Y150592547D01*
X23749500Y150515891D01*
X23749500Y150415480D01*
X23730593Y150357289D01*
X23720504Y150345476D01*
X18365489Y144990460D01*
X18365488Y144990461D01*
X18309539Y144934511D01*
X18269980Y144865993D01*
X18269978Y144865989D01*
X18249500Y144789565D01*
X18249500Y127165479D01*
X18230593Y127107288D01*
X18220504Y127095475D01*
X17265489Y126140460D01*
X17265488Y126140461D01*
X17209539Y126084511D01*
X17169982Y126015997D01*
X17169977Y126015985D01*
X17166649Y126003567D01*
X17159573Y125984925D01*
X17158241Y125982262D01*
X17119979Y125915989D01*
X17114058Y125893896D01*
X17109573Y125884925D01*
X17108457Y125883793D01*
X17106762Y125879699D01*
X17069978Y125815988D01*
X17049500Y125739565D01*
X17049500Y124865479D01*
X17030593Y124807288D01*
X17020504Y124795475D01*
X16209540Y123984511D01*
X16172587Y123920504D01*
X16169977Y123915984D01*
X16166651Y123903573D01*
X16159574Y123884927D01*
X16158241Y123882262D01*
X16119979Y123815989D01*
X16114058Y123793896D01*
X16109573Y123784925D01*
X16108457Y123783793D01*
X16106762Y123779699D01*
X16069978Y123715988D01*
X16049500Y123639565D01*
X16049500Y123160436D01*
X16069977Y123084015D01*
X16069979Y123084010D01*
X16093549Y123043185D01*
X16106763Y123020297D01*
X16110025Y123014159D01*
X16114191Y123005607D01*
X16119979Y122984011D01*
X16148558Y122934511D01*
X16150301Y122931492D01*
X16156765Y122920294D01*
X16166650Y122896429D01*
X16169977Y122884013D01*
X16189903Y122849502D01*
X16189903Y122849501D01*
X16209540Y122815489D01*
X16355525Y122669503D01*
X16383302Y122614987D01*
X16373730Y122554555D01*
X16330466Y122511290D01*
X16285521Y122500500D01*
X15365479Y122500500D01*
X15307288Y122519407D01*
X15295475Y122529496D01*
X13479496Y124345475D01*
X13451719Y124399992D01*
X13450500Y124415479D01*
X13450500Y124515891D01*
X13437103Y124565891D01*
X13416392Y124643186D01*
X13416390Y124643189D01*
X13416390Y124643191D01*
X13350503Y124757310D01*
X13350501Y124757312D01*
X13350500Y124757314D01*
X13257314Y124850500D01*
X13257311Y124850502D01*
X13257309Y124850504D01*
X13143189Y124916391D01*
X13143191Y124916391D01*
X13093799Y124929625D01*
X13015892Y124950500D01*
X12884108Y124950500D01*
X12806200Y124929625D01*
X12756809Y124916391D01*
X12642690Y124850504D01*
X12549496Y124757310D01*
X12483609Y124643191D01*
X12483608Y124643186D01*
X12449500Y124515892D01*
X6600000Y124515892D01*
X6600000Y131179275D01*
X9199500Y131179275D01*
X9199500Y129820726D01*
X9202353Y129790306D01*
X9202355Y129790297D01*
X9247207Y129662117D01*
X9327845Y129552856D01*
X9327847Y129552854D01*
X9327850Y129552850D01*
X9327853Y129552848D01*
X9327855Y129552846D01*
X9437116Y129472208D01*
X9437117Y129472208D01*
X9437118Y129472207D01*
X9565301Y129427354D01*
X9595725Y129424501D01*
X9595727Y129424500D01*
X9595734Y129424500D01*
X10404273Y129424500D01*
X10404273Y129424501D01*
X10434699Y129427354D01*
X10562882Y129472207D01*
X10672150Y129552850D01*
X10752793Y129662118D01*
X10797646Y129790301D01*
X10800499Y129820727D01*
X10800500Y129820727D01*
X10800500Y130858721D01*
X11150000Y130858721D01*
X11150000Y130650001D01*
X11150001Y130650000D01*
X11653590Y130650000D01*
X11650556Y130644745D01*
X11625000Y130549370D01*
X11625000Y130450630D01*
X11650556Y130355255D01*
X11653590Y130350000D01*
X11150001Y130350000D01*
X11150000Y130349999D01*
X11150000Y130141280D01*
X11182664Y129977066D01*
X11246739Y129822375D01*
X11339759Y129683160D01*
X11458159Y129564760D01*
X11597374Y129471740D01*
X11752066Y129407665D01*
X11752065Y129407665D01*
X11849999Y129388186D01*
X11850000Y129388186D01*
X11850000Y130153590D01*
X11855255Y130150556D01*
X11950630Y130125000D01*
X12049370Y130125000D01*
X12144745Y130150556D01*
X12150000Y130153590D01*
X12150000Y129388186D01*
X12247933Y129407665D01*
X12402625Y129471740D01*
X12541840Y129564760D01*
X12660240Y129683160D01*
X12753260Y129822375D01*
X12817335Y129977066D01*
X12849999Y130141280D01*
X12850000Y130141284D01*
X12850000Y130349999D01*
X12849999Y130350000D01*
X12346410Y130350000D01*
X12349444Y130355255D01*
X12375000Y130450630D01*
X12375000Y130549370D01*
X12349444Y130644745D01*
X12346410Y130650000D01*
X12849999Y130650000D01*
X12850000Y130650001D01*
X12850000Y130858717D01*
X12849999Y130858721D01*
X12817335Y131022935D01*
X12753260Y131177626D01*
X12660240Y131316841D01*
X12541840Y131435241D01*
X12402625Y131528261D01*
X12247939Y131592334D01*
X12247933Y131592336D01*
X12150000Y131611816D01*
X12150000Y130846411D01*
X12144745Y130849444D01*
X12049370Y130875000D01*
X11950630Y130875000D01*
X11855255Y130849444D01*
X11850000Y130846411D01*
X11850000Y131611816D01*
X11752066Y131592336D01*
X11752060Y131592334D01*
X11597374Y131528261D01*
X11458159Y131435241D01*
X11339759Y131316841D01*
X11246739Y131177626D01*
X11182664Y131022935D01*
X11150000Y130858721D01*
X10800500Y130858721D01*
X10800500Y131179273D01*
X10800499Y131179275D01*
X10797646Y131209695D01*
X10797646Y131209699D01*
X10752793Y131337882D01*
X10680939Y131435241D01*
X10672154Y131447145D01*
X10672152Y131447147D01*
X10672150Y131447150D01*
X10672146Y131447153D01*
X10672144Y131447155D01*
X10562883Y131527793D01*
X10434703Y131572645D01*
X10434694Y131572647D01*
X10404274Y131575500D01*
X10404266Y131575500D01*
X9595734Y131575500D01*
X9595725Y131575500D01*
X9565305Y131572647D01*
X9565296Y131572645D01*
X9437116Y131527793D01*
X9327855Y131447155D01*
X9327845Y131447145D01*
X9247207Y131337884D01*
X9202355Y131209704D01*
X9202353Y131209695D01*
X9199500Y131179275D01*
X6600000Y131179275D01*
X6600000Y144598381D01*
X12350000Y144598381D01*
X12350000Y144401620D01*
X12380778Y144207290D01*
X12380779Y144207286D01*
X12441576Y144020174D01*
X12441578Y144020171D01*
X12530903Y143844858D01*
X12530907Y143844852D01*
X12615831Y143727966D01*
X12615832Y143727966D01*
X13192930Y144305065D01*
X13239910Y144223694D01*
X13323694Y144139910D01*
X13405062Y144092932D01*
X12827964Y143515833D01*
X12944851Y143430908D01*
X12944857Y143430904D01*
X13120170Y143341579D01*
X13120173Y143341577D01*
X13307285Y143280780D01*
X13307289Y143280779D01*
X13501620Y143250000D01*
X13698380Y143250000D01*
X13892710Y143280779D01*
X13892714Y143280780D01*
X14079826Y143341577D01*
X14079829Y143341579D01*
X14255145Y143430906D01*
X14372034Y143515833D01*
X13794935Y144092932D01*
X13876306Y144139910D01*
X13960090Y144223694D01*
X14007068Y144305065D01*
X14584167Y143727966D01*
X14669094Y143844855D01*
X14758421Y144020171D01*
X14758423Y144020174D01*
X14819220Y144207286D01*
X14819221Y144207290D01*
X14850000Y144401620D01*
X14850000Y144598381D01*
X14819221Y144792711D01*
X14819220Y144792715D01*
X14758423Y144979827D01*
X14758421Y144979830D01*
X14669096Y145155143D01*
X14669092Y145155149D01*
X14584167Y145272036D01*
X14007068Y144694938D01*
X13960090Y144776306D01*
X13876306Y144860090D01*
X13794935Y144907070D01*
X14372034Y145484168D01*
X14372034Y145484169D01*
X14255148Y145569093D01*
X14255142Y145569097D01*
X14079829Y145658422D01*
X14079826Y145658424D01*
X13892714Y145719221D01*
X13892710Y145719222D01*
X13698380Y145750000D01*
X13501620Y145750000D01*
X13307289Y145719222D01*
X13307285Y145719221D01*
X13120173Y145658424D01*
X13120170Y145658422D01*
X12944859Y145569098D01*
X12827964Y145484168D01*
X13405063Y144907069D01*
X13323694Y144860090D01*
X13239910Y144776306D01*
X13192931Y144694937D01*
X12615832Y145272036D01*
X12530902Y145155141D01*
X12441578Y144979830D01*
X12441576Y144979827D01*
X12380779Y144792715D01*
X12380778Y144792711D01*
X12350000Y144598381D01*
X6600000Y144598381D01*
X6600000Y154565892D01*
X14849500Y154565892D01*
X14849500Y154434108D01*
X14857427Y154404525D01*
X14883609Y154306810D01*
X14949496Y154192691D01*
X14949498Y154192689D01*
X14949500Y154192686D01*
X15042686Y154099500D01*
X15042688Y154099499D01*
X15042690Y154099497D01*
X15156810Y154033610D01*
X15156808Y154033610D01*
X15156812Y154033609D01*
X15156814Y154033608D01*
X15284108Y153999500D01*
X15284110Y153999500D01*
X15415890Y153999500D01*
X15415892Y153999500D01*
X15543186Y154033608D01*
X15543188Y154033610D01*
X15543190Y154033610D01*
X15657309Y154099497D01*
X15657309Y154099498D01*
X15657314Y154099500D01*
X15728319Y154170506D01*
X15782834Y154198281D01*
X15798321Y154199500D01*
X17502383Y154199500D01*
X17560574Y154180593D01*
X17596538Y154131093D01*
X17596538Y154069907D01*
X17588118Y154050998D01*
X17583609Y154043190D01*
X17583608Y154043186D01*
X17571903Y153999500D01*
X17549500Y153915891D01*
X17549500Y153815480D01*
X17530593Y153757289D01*
X17520503Y153745476D01*
X17211423Y153436397D01*
X17156907Y153408620D01*
X17096475Y153418191D01*
X17071419Y153436395D01*
X17057314Y153450500D01*
X17057311Y153450502D01*
X17057309Y153450504D01*
X16943189Y153516391D01*
X16943191Y153516391D01*
X16893799Y153529625D01*
X16815892Y153550500D01*
X16684108Y153550500D01*
X16606200Y153529625D01*
X16556809Y153516391D01*
X16442690Y153450504D01*
X16349496Y153357310D01*
X16283609Y153243191D01*
X16283608Y153243186D01*
X16249500Y153115892D01*
X16249500Y152984108D01*
X16273249Y152895476D01*
X16283609Y152856810D01*
X16349496Y152742691D01*
X16349498Y152742689D01*
X16349500Y152742686D01*
X16442686Y152649500D01*
X16442688Y152649499D01*
X16442690Y152649497D01*
X16556810Y152583610D01*
X16556808Y152583610D01*
X16556812Y152583609D01*
X16556814Y152583608D01*
X16684108Y152549500D01*
X16684110Y152549500D01*
X16815890Y152549500D01*
X16815892Y152549500D01*
X16943186Y152583608D01*
X16943188Y152583610D01*
X16943190Y152583610D01*
X17057309Y152649497D01*
X17057309Y152649498D01*
X17057314Y152649500D01*
X17128319Y152720506D01*
X17182834Y152748281D01*
X17198321Y152749500D01*
X17289563Y152749500D01*
X17289563Y152749501D01*
X17365989Y152769979D01*
X17434511Y152809540D01*
X17465432Y152840461D01*
X17490461Y152865489D01*
X17945473Y153320503D01*
X17999990Y153348281D01*
X18015477Y153349500D01*
X18115890Y153349500D01*
X18115892Y153349500D01*
X18243186Y153383608D01*
X18243188Y153383610D01*
X18243190Y153383610D01*
X18357309Y153449497D01*
X18357309Y153449498D01*
X18357314Y153449500D01*
X18450500Y153542686D01*
X18450503Y153542691D01*
X18516390Y153656810D01*
X18516390Y153656812D01*
X18516392Y153656814D01*
X18550500Y153784108D01*
X18550500Y153915892D01*
X18516392Y154043186D01*
X18511882Y154050998D01*
X18499159Y154110846D01*
X18524044Y154166742D01*
X18577031Y154197336D01*
X18597617Y154199500D01*
X19401679Y154199500D01*
X19459870Y154180593D01*
X19471676Y154170510D01*
X19542686Y154099500D01*
X19542688Y154099499D01*
X19542690Y154099497D01*
X19656810Y154033610D01*
X19656808Y154033610D01*
X19656812Y154033609D01*
X19656814Y154033608D01*
X19784108Y153999500D01*
X19784110Y153999500D01*
X19915890Y153999500D01*
X19915892Y153999500D01*
X20043186Y154033608D01*
X20043188Y154033610D01*
X20043190Y154033610D01*
X20157309Y154099497D01*
X20157309Y154099498D01*
X20157314Y154099500D01*
X20250500Y154192686D01*
X20273165Y154231942D01*
X20316390Y154306810D01*
X20316390Y154306812D01*
X20316392Y154306814D01*
X20350500Y154434108D01*
X20350500Y154565892D01*
X20316392Y154693186D01*
X20316390Y154693189D01*
X20316390Y154693191D01*
X20250503Y154807310D01*
X20250501Y154807312D01*
X20250500Y154807314D01*
X20157314Y154900500D01*
X20157311Y154900502D01*
X20157309Y154900504D01*
X20043189Y154966391D01*
X20043191Y154966391D01*
X19993799Y154979625D01*
X19915892Y155000500D01*
X19784108Y155000500D01*
X19706200Y154979625D01*
X19656809Y154966391D01*
X19542690Y154900504D01*
X19542689Y154900503D01*
X19542686Y154900501D01*
X19542686Y154900500D01*
X19471680Y154829495D01*
X19417166Y154801719D01*
X19401679Y154800500D01*
X15798321Y154800500D01*
X15740130Y154819407D01*
X15728323Y154829491D01*
X15657314Y154900500D01*
X15657311Y154900502D01*
X15657309Y154900504D01*
X15543189Y154966391D01*
X15543191Y154966391D01*
X15493799Y154979625D01*
X15415892Y155000500D01*
X15284108Y155000500D01*
X15206200Y154979625D01*
X15156809Y154966391D01*
X15042690Y154900504D01*
X14949496Y154807310D01*
X14883609Y154693191D01*
X14883608Y154693186D01*
X14849500Y154565892D01*
X6600000Y154565892D01*
X6600000Y157065892D01*
X10649500Y157065892D01*
X10649500Y156934108D01*
X10669209Y156860553D01*
X10683609Y156806810D01*
X10749496Y156692691D01*
X10749498Y156692689D01*
X10749500Y156692686D01*
X10842686Y156599500D01*
X10842688Y156599499D01*
X10842690Y156599497D01*
X10956810Y156533610D01*
X10956808Y156533610D01*
X10956812Y156533609D01*
X10956814Y156533608D01*
X11084108Y156499500D01*
X11084110Y156499500D01*
X11215890Y156499500D01*
X11215892Y156499500D01*
X11343186Y156533608D01*
X11343188Y156533610D01*
X11343190Y156533610D01*
X11457309Y156599497D01*
X11457309Y156599498D01*
X11457314Y156599500D01*
X11528319Y156670506D01*
X11582834Y156698281D01*
X11598321Y156699500D01*
X23851679Y156699500D01*
X23909870Y156680593D01*
X23921676Y156670510D01*
X23992686Y156599500D01*
X23992688Y156599499D01*
X23992690Y156599497D01*
X24106810Y156533610D01*
X24106808Y156533610D01*
X24106812Y156533609D01*
X24106814Y156533608D01*
X24234108Y156499500D01*
X24234110Y156499500D01*
X24365890Y156499500D01*
X24365892Y156499500D01*
X24493186Y156533608D01*
X24493188Y156533610D01*
X24493190Y156533610D01*
X24607309Y156599497D01*
X24607309Y156599498D01*
X24607314Y156599500D01*
X24654998Y156647185D01*
X24709513Y156674960D01*
X24769945Y156665389D01*
X24795000Y156647186D01*
X24842686Y156599500D01*
X24842688Y156599499D01*
X24842690Y156599497D01*
X24956810Y156533610D01*
X24956808Y156533610D01*
X24956812Y156533609D01*
X24956814Y156533608D01*
X25084108Y156499500D01*
X25134521Y156499500D01*
X25192712Y156480593D01*
X25204525Y156470504D01*
X27270504Y154404525D01*
X27298281Y154350008D01*
X27299500Y154334521D01*
X27299500Y154234108D01*
X27320077Y154157314D01*
X27333609Y154106810D01*
X27399496Y153992691D01*
X27399498Y153992689D01*
X27399500Y153992686D01*
X27492686Y153899500D01*
X27492688Y153899499D01*
X27492690Y153899497D01*
X27606810Y153833610D01*
X27606808Y153833610D01*
X27606812Y153833609D01*
X27606814Y153833608D01*
X27734108Y153799500D01*
X27734110Y153799500D01*
X27865890Y153799500D01*
X27865892Y153799500D01*
X27993186Y153833608D01*
X27993188Y153833610D01*
X27993190Y153833610D01*
X28107309Y153899497D01*
X28107309Y153899498D01*
X28107314Y153899500D01*
X28200500Y153992686D01*
X28204434Y153999500D01*
X28266390Y154106810D01*
X28266390Y154106812D01*
X28266392Y154106814D01*
X28300500Y154234108D01*
X28300500Y154365892D01*
X28266392Y154493186D01*
X28266390Y154493189D01*
X28266390Y154493191D01*
X28200503Y154607310D01*
X28200501Y154607312D01*
X28200500Y154607314D01*
X28107314Y154700500D01*
X28107311Y154700502D01*
X28107309Y154700504D01*
X27993189Y154766391D01*
X27993191Y154766391D01*
X27943799Y154779625D01*
X27865892Y154800500D01*
X27765479Y154800500D01*
X27707288Y154819407D01*
X27695475Y154829496D01*
X25678083Y156846888D01*
X25650306Y156901405D01*
X25649935Y156929821D01*
X25650500Y156934111D01*
X25650500Y157065891D01*
X25650500Y157065892D01*
X25616392Y157193186D01*
X25616390Y157193189D01*
X25616390Y157193191D01*
X25550503Y157307310D01*
X25550501Y157307312D01*
X25550500Y157307314D01*
X25457314Y157400500D01*
X25457311Y157400502D01*
X25457309Y157400504D01*
X25343189Y157466391D01*
X25343191Y157466391D01*
X25293799Y157479625D01*
X25215892Y157500500D01*
X25084108Y157500500D01*
X25006200Y157479625D01*
X24956809Y157466391D01*
X24842690Y157400504D01*
X24842689Y157400503D01*
X24842686Y157400501D01*
X24842686Y157400500D01*
X24795001Y157352816D01*
X24740487Y157325040D01*
X24680055Y157334611D01*
X24654999Y157352815D01*
X24607314Y157400500D01*
X24607311Y157400502D01*
X24607309Y157400504D01*
X24493189Y157466391D01*
X24493191Y157466391D01*
X24443799Y157479625D01*
X24365892Y157500500D01*
X24234108Y157500500D01*
X24156200Y157479625D01*
X24106809Y157466391D01*
X23992690Y157400504D01*
X23992689Y157400503D01*
X23992686Y157400501D01*
X23992686Y157400500D01*
X23921680Y157329495D01*
X23867166Y157301719D01*
X23851679Y157300500D01*
X11598321Y157300500D01*
X11540130Y157319407D01*
X11528323Y157329491D01*
X11457314Y157400500D01*
X11457311Y157400502D01*
X11457309Y157400504D01*
X11343189Y157466391D01*
X11343191Y157466391D01*
X11293799Y157479625D01*
X11215892Y157500500D01*
X11084108Y157500500D01*
X11006200Y157479625D01*
X10956809Y157466391D01*
X10842690Y157400504D01*
X10749496Y157307310D01*
X10683609Y157193191D01*
X10667437Y157132834D01*
X10649500Y157065892D01*
X6600000Y157065892D01*
X6600000Y159065892D01*
X13599500Y159065892D01*
X13599500Y158934108D01*
X13620211Y158856814D01*
X13633609Y158806810D01*
X13699496Y158692691D01*
X13699498Y158692689D01*
X13699500Y158692686D01*
X13792686Y158599500D01*
X13792688Y158599499D01*
X13792690Y158599497D01*
X13906810Y158533610D01*
X13906808Y158533610D01*
X13906812Y158533609D01*
X13906814Y158533608D01*
X14034108Y158499500D01*
X14034110Y158499500D01*
X14165890Y158499500D01*
X14165892Y158499500D01*
X14293186Y158533608D01*
X14293188Y158533610D01*
X14293190Y158533610D01*
X14407309Y158599497D01*
X14407309Y158599498D01*
X14407314Y158599500D01*
X14500500Y158692686D01*
X14529368Y158742686D01*
X14566390Y158806810D01*
X14566390Y158806812D01*
X14566392Y158806814D01*
X14600500Y158934108D01*
X14600500Y159065892D01*
X14566392Y159193186D01*
X14566390Y159193189D01*
X14566390Y159193191D01*
X14513764Y159284341D01*
X14500500Y159333841D01*
X14500500Y161843100D01*
X14519407Y161901291D01*
X14529490Y161913098D01*
X15047138Y162430747D01*
X15091514Y162456367D01*
X15193186Y162483608D01*
X15307314Y162549500D01*
X15400500Y162642686D01*
X15433879Y162700500D01*
X15466390Y162756810D01*
X15466390Y162756812D01*
X15466392Y162756814D01*
X15500500Y162884108D01*
X15500500Y163015892D01*
X15466392Y163143186D01*
X15466390Y163143190D01*
X15466390Y163143191D01*
X15400503Y163257310D01*
X15400501Y163257312D01*
X15400500Y163257314D01*
X15307314Y163350500D01*
X15307311Y163350502D01*
X15307309Y163350504D01*
X15193189Y163416391D01*
X15193191Y163416391D01*
X15143799Y163429625D01*
X15065892Y163450500D01*
X14934108Y163450500D01*
X14856200Y163429625D01*
X14806809Y163416391D01*
X14692690Y163350504D01*
X14599496Y163257310D01*
X14533609Y163143190D01*
X14533607Y163143186D01*
X14506365Y163041518D01*
X14480743Y162997139D01*
X13779520Y162295914D01*
X13779516Y162295909D01*
X13726794Y162204593D01*
X13703053Y162115991D01*
X13703053Y162115988D01*
X13699500Y162102727D01*
X13699500Y162102725D01*
X13699500Y159333841D01*
X13686236Y159284341D01*
X13633609Y159193191D01*
X13633608Y159193186D01*
X13599500Y159065892D01*
X6600000Y159065892D01*
X6600000Y186701000D01*
X6618907Y186759191D01*
X6668407Y186795155D01*
X6699000Y186800000D01*
X10000500Y186800000D01*
X10058691Y186781093D01*
G37*
%TD.AperFunction*%
%TD*%
M02*
